<svg version="1.1" xmlns="http://www.w3.org/2000/svg" xmlns:xlink="http://www.w3.org/1999/xlink" width="370.32117" height="94.62503" viewBox="0,0,370.32117,94.62503"><g transform="translate(-54.85341,-132.68749)"><g data-paper-data="{&quot;isPaintingLayer&quot;:true}" fill-rule="nonzero" stroke-linecap="butt" stroke-linejoin="miter" stroke-miterlimit="10" stroke-dasharray="" stroke-dashoffset="0" style="mix-blend-mode: normal"><g data-paper-data="{&quot;index&quot;:null}" stroke-width="2"><path d="M285.36236,147.02893l2.20995,3.16341l-46.62655,26.12467l-2.20995,-3.16341z" fill="#a4a4a4" stroke="#a4a4a4"/><path d="M242.35278,171.93085l1.15751,0.44645l-41.19121,28.24527l-1.25591,-0.78843z" fill="#a4a4a4" stroke="#874444"/><g><path d="M265.66799,155.89491l-66.1272,42.47976c0,0 -3.88281,-6.76017 -8.86706,-8.65352c-5.38371,-2.04505 -22.32928,-3.19677 -22.32928,-3.19677c0,0 10.51658,-7.04919 13.65076,-11.01962c2.73173,-3.46056 4.11342,-11.48424 4.11342,-11.48424c0,0 12.94537,-1.38308 17.46986,-3.00428c4.08193,-1.46261 8.48631,-6.29602 8.48631,-6.29602c0,0 16.233,3.91659 24.71526,4.10961c8.71264,0.19828 28.88793,-2.93507 28.88793,-2.93507z" fill="#d14040" stroke="#d14040"/><path d="M237.64278,173.91874l-2.4575,2.13817l-23.02991,-22.11447z" fill="#a2a2a2" stroke="#a4a4a4"/><path d="M236.6111,172.56566l-1.40101,4.57376l-50.03921,-13.28187z" fill="#a2a2a2" stroke="#a4a4a4"/><path d="M232.14327,172.0469l1.46033,3.99155l-65.92738,10.83651z" fill="#a2a2a2" stroke="#874444"/></g></g><path d="M219.8805,186.41431l-3.27092,-32.38966l100.54505,-9.03065l3.27091,32.38966z" data-paper-data="{&quot;index&quot;:null}" fill="#d14040" stroke="#d14040" stroke-width="2"/><path d="M277.92586,212.39944l-14.47884,-7.91285l19.66224,-35.97772l14.47884,7.91286z" data-paper-data="{&quot;index&quot;:null}" fill="#d14040" stroke="#d14040" stroke-width="2"/><path d="M266.24545,218.46996l-3.34772,-14.10825l3.89193,-0.92351l3.34772,14.10825z" data-paper-data="{&quot;index&quot;:null}" fill="#d14040" stroke="#d14040" stroke-width="2"/><path d="M275.24545,222.46996l-3.34772,-14.10825l3.89193,-0.92351l3.34772,14.10825z" data-paper-data="{&quot;index&quot;:null}" fill="#d14040" stroke="#d14040" stroke-width="2"/><path d="M234.79927,197.12377l20.65172,-25.09496l14.28482,11.75559l-20.65171,25.09495z" data-paper-data="{&quot;index&quot;:null}" fill="#d14040" stroke="#d14040" stroke-width="2"/><path d="M204.5456,213.93373l-1.65414,-13.92641l39.5981,-3.5328l1.65414,13.9264z" data-paper-data="{&quot;index&quot;:null}" fill="#d14040" stroke="#d14040" stroke-width="2"/><path d="M190.52318,223.98917l14.57571,-21.51111l2.91308,1.94097l-14.57572,21.51111z" data-paper-data="{&quot;index&quot;:null}" fill="#d14040" stroke="#d14040" stroke-width="2"/><g data-paper-data="{&quot;index&quot;:null}" stroke-width="2"><path d="M422.81587,163.35417c0,0 -18.3935,3.85907 -18.44116,3.86376c-4.78423,0.47138 -15.01355,-3.07619 -21.07507,-3.16164c-4.47787,-0.06313 -12.62458,1.35022 -12.62458,1.35022l1.29093,-19.75482h52.18805l-0.1258,6.18691l-20.50654,0.52225l-0.13859,3.86053l19.78154,3.05858z" fill="#d14040" stroke="#d14040"/><path d="M410.43796,146.76463v-3.89532h7.69439v3.89532z" fill="#d14040" stroke="#d14040"/><path d="M371.96601,145.65168v-6.95593h30.44302v6.95593z" fill="#d14040" stroke="#d14040"/><path d="M376.315,137.02633v-3.33884h8.69801v3.33884z" fill="#990000" stroke="#990000"/></g><g data-paper-data="{&quot;index&quot;:null}" stroke-width="2"><path d="M323.0739,168.13852l-0.30534,-14.11641l6.34363,-0.50122l0.30533,14.11642z" fill="#990000" stroke="#990000"/><path d="M336.36591,165.63852l-0.30533,-14.11641l6.34363,-0.50122l0.30533,14.11642z" fill="#990000" stroke="#990000"/><path d="M349.65793,163.88852l-0.30534,-14.11641l6.34363,-0.50122l0.30533,14.11642z" fill="#990000" stroke="#990000"/><path d="M361.55078,161.13852l-0.30534,-14.11641l6.34363,-0.50122l0.30533,14.11642z" fill="#990000" stroke="#990000"/><path d="M380.08005,162.94931c0,0 -20.32494,6.32877 -31.76469,8.33067c-12.32656,2.15708 -34.98089,3.09206 -34.98089,3.09206l-0.17989,-11.96702c0,0 21.57883,-2.0472 33.8582,-4.19602c4.03562,-0.70621 9.28777,-2.10464 14.40603,-3.62263c9.46984,-2.80858 18.48134,-6.02643 18.48134,-6.02643l0.17989,14.38937z" fill="#d14040" stroke="#d14040"/></g><g data-paper-data="{&quot;index&quot;:null}" stroke-width="2"><path d="M202.83956,165.05519l-0.34302,-14.11641l7.12653,-0.50122l0.34301,14.11642z" fill="#990000" stroke="#990000"/><path d="M187.47048,167.72186l-0.34302,-14.11641l7.12653,-0.50122l0.34302,14.11642z" fill="#990000" stroke="#990000"/><path d="M172.1014,170.38852l-0.34301,-14.11641l7.12653,-0.50122l0.34301,14.11642z" fill="#990000" stroke="#990000"/><path d="M156.38302,173.22186l-0.34302,-14.11641l7.12653,-0.50122l0.34301,14.11642z" fill="#990000" stroke="#990000"/><path d="M141.01395,176.05519l-0.34302,-14.11641l7.12653,-0.50122l0.34301,14.11642z" fill="#990000" stroke="#990000"/><path d="M125.29556,177.38852l-0.34302,-14.11641l7.12653,-0.50122l0.34301,14.11642z" fill="#990000" stroke="#990000"/><path d="M109.22788,178.72185l-0.34302,-14.11641l7.12654,-0.50122l0.34301,14.11642z" fill="#990000" stroke="#990000"/><path d="M93.50951,179.72185l-0.34301,-14.11641l7.12653,-0.50122l0.34301,14.11642z" fill="#990000" stroke="#990000"/><path d="M63.81924,182.05519l-0.34301,-14.11641l7.12653,-0.50122l0.34301,14.11642z" fill="#990000" stroke="#990000"/><path d="M79.53763,181.30519l-0.34302,-14.11641l7.12653,-0.50122l0.34301,14.11642z" fill="#990000" stroke="#990000"/><path d="M190.64865,172.12419c-13.94346,3.57446 -46.44647,7.24118 -75.84597,10.54978c-30.29532,3.40942 -58.86696,2.90764 -58.86696,2.90764l-0.07576,-11.89201c0,0 26.88179,0.65235 56.87472,-2.60979c28.60655,-3.11135 60.04326,-7.05459 73.68575,-10.58625c13.86372,-3.58893 31.89463,-4.20082 31.89463,-4.20082l1.6476,11.39201c0,0 -15.77769,0.96935 -29.31401,4.43944z" fill="#d14040" stroke="#d14040"/></g><g data-paper-data="{&quot;index&quot;:null}"><path d="M296.65406,146.48208c0,0 -2.57422,5.64695 -5.02504,10.21436c-1.62441,3.0273 -3.47496,5.58039 -3.47496,5.70057c0,6.87176 -1,34.97576 -1,34.97576c0,0 -20.75754,-7.00569 -44.84305,-10.92862c-21.84709,-1.1348 -50.65695,0.19533 -50.65695,0.19533c0,0 11.31629,-6.55256 10.19785,-10.96001c-1.2618,-4.97246 -5.94054,-12.12722 -5.24271,-12.18286c2.43243,-0.19399 11.41359,-0.89866 15.6087,-3.24477c5.13281,-2.87053 5.3374,-7.46243 5.3374,-7.46243c0,0 23.29216,0.48297 36.59458,0.34752c20.01628,-2.68088 42.50419,-6.65488 42.50419,-6.65488z" fill="#d14040" stroke="none" stroke-width="0"/><path d="M289.27638,173.89749c0,0 -9.42339,-2.93022 -8.12936,-5.72566c1.29403,-2.79545 12.81546,-4.39754 12.81546,-4.39754z" fill="#874444" stroke="#874444" stroke-width="0.5"/><path d="M307.98316,147.25403l-10.85448,22.40467l-12.30377,-0.81655l10.85448,-22.40471z" fill="#914949" stroke="none" stroke-width="2"/><path d="M292.65406,168.31879c0,0 0,23.05481 0,27.04918c0,1.13655 -6.5,2.18987 -6.5,2.18987c0,0 0,-1.46545 0,-2.93007c0,-4.38869 0,-26.30893 0,-26.30893z" fill="#914949" stroke="none" stroke-width="0"/><path d="M282.66558,169.82894l1.71544,2.45066c0,0 -41.35602,7.99614 -48.67525,9.14929c-14.79389,2.33081 -43.39659,4.93409 -43.39659,4.93409c0,0 26.09654,-4.18632 40.88272,-6.25759c16.6572,-2.33339 49.47369,-10.27645 49.47369,-10.27645z" fill="#874444" stroke="#874444" stroke-width="0.5"/><path d="M282.97476,168.65631l-0.98146,2.31573c0,0 -31.06689,-2.56016 -45.76689,-3.82994c-13.66685,-1.18053 -39.55974,-3.5405 -39.55974,-3.5405c0,0 26.63389,1.43648 40.56074,2.25211c14.79051,0.86621 45.74734,2.8026 45.74734,2.8026z" fill="#874444" stroke="#874444" stroke-width="0.5"/><path d="M285.71962,165.97681l-2.92348,1.92315c0,0 -22.02737,-5.24215 -32.8923,-7.76698c-10.67014,-2.47958 -31.72347,-7.24862 -31.72347,-7.24862c0,0 24.4557,4.61737 36.06889,6.86856c10.84766,2.10279 31.47037,6.22389 31.47037,6.22389z" fill="#874444" stroke="#874444" stroke-width="0.5"/></g></g></g></svg>