<svg version="1.1" xmlns="http://www.w3.org/2000/svg" xmlns:xlink="http://www.w3.org/1999/xlink" width="370.32117" height="116.87037" viewBox="0,0,370.32117,116.87037"><g transform="translate(-54.85341,-121.56483)"><g data-paper-data="{&quot;isPaintingLayer&quot;:true}" fill-rule="nonzero" stroke-linecap="butt" stroke-linejoin="miter" stroke-miterlimit="10" stroke-dasharray="" stroke-dashoffset="0" style="mix-blend-mode: normal"><g data-paper-data="{&quot;index&quot;:null}" stroke-width="2"><path d="M285.36236,135.90628l2.20995,5.55395l-46.62655,45.86672l-2.20995,-5.55395z" fill="#a4a4a4" stroke="#a4a4a4"/><path d="M242.35278,179.62628l1.15751,0.78382l-41.19121,49.58983l-1.25591,-1.38424z" fill="#a4a4a4" stroke="#874444"/><g><path d="M265.66799,151.47217l-66.1272,74.58112c0,0 -3.88281,-11.86873 -8.86706,-15.19286c-5.38371,-3.59046 -22.32928,-5.61252 -22.32928,-5.61252c0,0 10.51658,-12.37618 13.65076,-19.347c2.73173,-6.07567 4.11342,-20.16273 4.11342,-20.16273c0,0 12.94537,-2.42826 17.46986,-5.27458c4.08193,-2.56788 8.48631,-11.05383 8.48631,-11.05383c0,0 16.233,6.8763 24.71526,7.21518c8.71264,0.34812 28.88793,-5.15306 28.88793,-5.15306z" fill="#d14040" stroke="#d14040"/><path d="M237.64278,183.11634l-2.4575,3.75395l-23.02991,-38.82606z" fill="#a2a2a2" stroke="#a4a4a4"/><path d="M236.6111,180.74077l-1.40101,8.03008l-50.03921,-23.31879z" fill="#a2a2a2" stroke="#874444"/><path d="M232.14327,179.82993l1.46033,7.00791l-65.92738,19.02551z" fill="#874444" stroke="#874444"/></g></g><path d="M219.8805,175.29167l-3.27092,-32.38966l100.54505,-9.03065l3.27091,32.38966z" data-paper-data="{&quot;index&quot;:null}" fill="#d14040" stroke="#d14040" stroke-width="2"/><path d="M277.92586,201.27679l-14.47884,-7.91285l19.66224,-35.97772l14.47884,7.91286z" data-paper-data="{&quot;index&quot;:null}" fill="#161616" stroke="#161616" stroke-width="2"/><path d="M266.24545,207.34731l-3.34772,-14.10825l3.89193,-0.92351l3.34772,14.10825z" data-paper-data="{&quot;index&quot;:null}" fill="#161616" stroke="#161616" stroke-width="2"/><path d="M275.24545,211.34731l-3.34772,-14.10825l3.89193,-0.92351l3.34772,14.10825z" data-paper-data="{&quot;index&quot;:null}" fill="#161616" stroke="#161616" stroke-width="2"/><path d="M234.79927,186.00112l20.65172,-25.09496l14.28482,11.75559l-20.65171,25.09495z" data-paper-data="{&quot;index&quot;:null}" fill="#161616" stroke="#161616" stroke-width="2"/><path d="M204.5456,202.81108l-1.65414,-13.92641l39.5981,-3.5328l1.65414,13.9264z" data-paper-data="{&quot;index&quot;:null}" fill="#161616" stroke="#161616" stroke-width="2"/><path d="M190.52318,212.8665l14.57571,-21.51111l2.91308,1.94097l-14.57572,21.51111z" data-paper-data="{&quot;index&quot;:null}" fill="#d14040" stroke="#d14040" stroke-width="2"/><g data-paper-data="{&quot;index&quot;:null}" stroke-width="2"><path d="M423.31587,146.73151c0,0 -18.8935,9.35907 -18.94116,9.36376c-4.78423,0.47138 -15.01355,-3.07619 -21.07507,-3.16164c-4.47787,-0.06313 -12.62458,1.35022 -12.62458,1.35022l1.29093,-19.75482h52.18805l-0.1258,6.18691l-20.50654,0.52225l20.14295,1.41911z" fill="#d14040" stroke="#d14040"/><path d="M410.43796,135.64199v-3.89532h7.69439v3.89532z" fill="#d14040" stroke="#d14040"/><path d="M371.96601,134.52902v-6.95593h30.44302v6.95593z" fill="#d14040" stroke="#d14040"/><path d="M376.315,125.90367v-3.33884h8.69801v3.33884z" fill="#990000" stroke="#990000"/></g><g data-paper-data="{&quot;index&quot;:null}" stroke-width="2"><path d="M323.0739,157.01588l-0.30534,-14.11641l6.34363,-0.50122l0.30533,14.11642z" fill="#990000" stroke="#990000"/><path d="M336.36591,154.51588l-0.30533,-14.11641l6.34363,-0.50122l0.30533,14.11642z" fill="#990000" stroke="#990000"/><path d="M349.65793,152.76588l-0.30534,-14.11641l6.34363,-0.50122l0.30533,14.11642z" fill="#990000" stroke="#990000"/><path d="M361.55078,150.01588l-0.30534,-14.11641l6.34363,-0.50122l0.30533,14.11642z" fill="#990000" stroke="#990000"/><path d="M380.08005,151.82666c0,0 -20.32494,6.32877 -31.76469,8.33067c-12.32656,2.15708 -34.98089,3.09206 -34.98089,3.09206l-0.17989,-11.96702c0,0 21.57883,-2.0472 33.8582,-4.19602c4.03562,-0.70621 9.28777,-2.10464 14.40603,-3.62263c9.46984,-2.80858 18.48134,-6.02643 18.48134,-6.02643l0.17989,14.38937z" fill="#d14040" stroke="#d14040"/></g><g data-paper-data="{&quot;index&quot;:null}" stroke-width="2"><path d="M202.83956,153.93254l-0.34302,-14.11641l7.12653,-0.50122l0.34301,14.11642z" fill="#990000" stroke="#990000"/><path d="M187.47048,156.59919l-0.34302,-14.11641l7.12653,-0.50122l0.34302,14.11642z" fill="#990000" stroke="#990000"/><path d="M172.1014,159.26588l-0.34301,-14.11641l7.12653,-0.50122l0.34301,14.11642z" fill="#990000" stroke="#990000"/><path d="M156.38302,162.09919l-0.34302,-14.11641l7.12653,-0.50122l0.34301,14.11642z" fill="#990000" stroke="#990000"/><path d="M141.01395,164.93254l-0.34302,-14.11641l7.12653,-0.50122l0.34301,14.11642z" fill="#990000" stroke="#990000"/><path d="M125.29556,166.26588l-0.34302,-14.11641l7.12653,-0.50122l0.34301,14.11642z" fill="#990000" stroke="#990000"/><path d="M109.22788,167.59918l-0.34302,-14.11641l7.12654,-0.50122l0.34301,14.11642z" fill="#990000" stroke="#990000"/><path d="M93.50951,168.59918l-0.34301,-14.11641l7.12653,-0.50122l0.34301,14.11642z" fill="#990000" stroke="#990000"/><path d="M63.81924,170.93254l-0.34301,-14.11641l7.12653,-0.50122l0.34301,14.11642z" fill="#990000" stroke="#990000"/><path d="M79.53763,170.18254l-0.34302,-14.11641l7.12653,-0.50122l0.34301,14.11642z" fill="#990000" stroke="#990000"/><path d="M190.64865,161.00153c-13.94346,3.57446 -46.44647,7.24118 -75.84597,10.54978c-30.29532,3.40942 -58.86696,2.90764 -58.86696,2.90764l-0.07576,-11.89201c0,0 26.88179,0.65235 56.87472,-2.60979c28.60655,-3.11135 60.04326,-7.05459 73.68575,-10.58625c13.86372,-3.58893 31.89463,-4.20082 31.89463,-4.20082l1.6476,11.39201c0,0 -15.77769,0.96935 -29.31401,4.43944z" fill="#d14040" stroke="#d14040"/></g><g data-paper-data="{&quot;index&quot;:null}"><path d="M296.65406,135.40483c0,0 -2.57422,11.39107 -5.02504,20.60447c-1.62441,6.10669 -3.47496,11.25681 -3.47496,11.49923c0,13.86176 -1,70.55333 -1,70.55333c0,0 -20.75754,-14.13192 -44.84305,-22.04528c-21.84709,-2.28913 -50.65695,0.39402 -50.65695,0.39402c0,0 11.31629,-13.21786 10.19785,-22.1086c-1.2618,-10.03049 -5.94054,-24.46312 -5.24271,-24.57535c2.43243,-0.39131 11.41359,-1.81278 15.6087,-6.54537c5.13281,-5.79045 5.3374,-15.05326 5.3374,-15.05326c0,0 23.29216,0.97425 36.59458,0.70102c20.01628,-5.40789 42.50419,-13.42427 42.50419,-13.42427z" fill="#d14040" stroke="none" stroke-width="0"/><path d="M289.27638,190.70739c0,0 -9.42339,-5.91086 -8.12936,-11.54984c1.29403,-5.639 12.81546,-8.87075 12.81546,-8.87075z" fill="#874444" stroke="#874444" stroke-width="0.5"/><path d="M307.98316,136.962l-10.85448,45.19485l-12.30377,-1.64715l10.85448,-45.19492z" fill="#914949" stroke="none" stroke-width="2"/><path d="M292.65406,179.454c0,0 0,46.50631 0,54.56378c0,2.29265 -6.5,4.41742 -6.5,4.41742c0,0 0,-2.95612 0,-5.91056c0,-8.8529 0,-53.07054 0,-53.07054z" fill="#914949" stroke="none" stroke-width="0"/><path d="M282.66558,182.50027l1.71544,4.94349c0,0 -41.35602,16.12986 -48.67525,18.456c-14.79389,4.70173 -43.39659,9.95308 -43.39659,9.95308c0,0 26.09654,-8.44467 40.88272,-12.62285c16.6572,-4.70693 49.47369,-20.72972 49.47369,-20.72972z" fill="#874444" stroke="#874444" stroke-width="0.5"/><path d="M282.97476,180.13483l-0.98146,4.67131c0,0 -31.06689,-5.16437 -45.76689,-7.72578c-13.66685,-2.38137 -39.55974,-7.14192 -39.55974,-7.14192c0,0 26.63389,2.89768 40.56074,4.54297c14.79051,1.74732 45.74734,5.65342 45.74734,5.65342z" fill="#874444" stroke="#874444" stroke-width="0.5"/><path d="M285.71962,174.72974l-2.92348,3.87939c0,0 -22.02737,-10.5745 -32.8923,-15.6676c-10.67014,-5.00182 -31.72347,-14.62196 -31.72347,-14.62196c0,0 24.4557,9.31418 36.06889,13.8553c10.84766,4.24176 31.47037,12.55487 31.47037,12.55487z" fill="#874444" stroke="#874444" stroke-width="0.5"/></g></g></g></svg>