<svg version="1.1" xmlns="http://www.w3.org/2000/svg" xmlns:xlink="http://www.w3.org/1999/xlink" width="366.6591" height="94.62507" viewBox="0,0,366.6591,94.62507"><g transform="translate(-58.51356,-156.68747)"><g data-paper-data="{&quot;isPaintingLayer&quot;:true}" fill-rule="nonzero" stroke-linecap="butt" stroke-linejoin="miter" stroke-miterlimit="10" stroke-dasharray="" stroke-dashoffset="0" style="mix-blend-mode: normal"><g data-paper-data="{&quot;index&quot;:null}" stroke-width="2"><path d="M235.23388,174.04913l2.20995,-0.46298l46.62655,3.82346l-2.20995,0.46298z" fill="#a4a4a4" stroke="#a4a4a4"/><path d="M197.56123,170.14431l1.25591,-0.11539l41.19121,4.13382l-1.15751,0.06534z" fill="#a4a4a4" stroke="#a4a4a4"/><g><path d="M262.16606,176.57505c0,0 -20.17529,-0.45858 -28.88793,-0.42956c-8.48226,0.02825 -24.71526,0.60146 -24.71526,0.60146c0,0 -4.40438,-0.70739 -8.48631,-0.92145c-4.52449,-0.23727 -17.46986,-0.43969 -17.46986,-0.43969c0,0 -1.38169,-1.1743 -4.11342,-1.68077c-3.13418,-0.58109 -13.65076,-1.61277 -13.65076,-1.61277c0,0 16.94557,-0.16856 22.32928,-0.46786c4.98425,-0.2771 8.86706,-1.26648 8.86706,-1.26648l66.1272,6.2171z" fill="#161616" stroke="#161616"/><path d="M208.65344,176.86077l23.02991,-3.23655l2.4575,0.31293z" fill="#a2a2a2" stroke="#a4a4a4"/><path d="M181.66894,175.40966l50.03921,-1.94386l1.40101,0.66939z" fill="#a2a2a2" stroke="#a4a4a4"/><path d="M164.17429,172.04096l65.92738,1.58597l-1.46033,0.58418z" fill="#a2a2a2" stroke="#a4a4a4"/></g></g><path d="M219.87857,210.41429l-3.27092,-32.38966l100.54505,-9.03065l3.27091,32.38966z" data-paper-data="{&quot;index&quot;:null}" fill="#161616" stroke="#161616" stroke-width="2"/><path d="M277.92393,236.39942l-14.47884,-7.91285l19.66224,-35.97772l14.47884,7.91286z" data-paper-data="{&quot;index&quot;:null}" fill="#161616" stroke="#161616" stroke-width="2"/><path d="M266.24352,242.47l-3.34772,-14.10825l3.89193,-0.92351l3.34772,14.10825z" data-paper-data="{&quot;index&quot;:null}" fill="#161616" stroke="#161616" stroke-width="2"/><path d="M275.24352,246.47l-3.34772,-14.10825l3.89193,-0.92351l3.34772,14.10825z" data-paper-data="{&quot;index&quot;:null}" fill="#161616" stroke="#161616" stroke-width="2"/><path d="M234.79734,221.12381l20.65172,-25.09496l14.28482,11.75559l-20.65171,25.09495z" data-paper-data="{&quot;index&quot;:null}" fill="#161616" stroke="#161616" stroke-width="2"/><path d="M204.54367,237.93375l-1.65414,-13.92641l39.5981,-3.5328l1.65414,13.9264z" data-paper-data="{&quot;index&quot;:null}" fill="#161616" stroke="#161616" stroke-width="2"/><path d="M190.52125,247.98919l14.57571,-21.51111l2.91308,1.94097l-14.57572,21.51111z" data-paper-data="{&quot;index&quot;:null}" fill="#161616" stroke="#161616" stroke-width="2"/><g data-paper-data="{&quot;index&quot;:null}" stroke-width="2"><path d="M422.81394,191.35415c0,0 -18.3935,-0.14093 -18.44116,-0.13624c-4.78423,0.47138 -15.01355,-3.07619 -21.07507,-3.16164c-4.47787,-0.06313 -12.62458,1.35022 -12.62458,1.35022l1.29093,-19.75482h52.18805l-0.1258,6.18691l-20.50654,0.52225l-0.13859,3.86053l19.78154,8.05858l-0.34875,3.0742z" fill="#161616" stroke="#161616"/><path d="M410.43603,170.7646v-3.89532h7.69439v3.89532z" fill="#161616" stroke="#161616"/><path d="M371.96408,169.65166v-6.95593h30.44302v6.95593z" fill="#161616" stroke="#161616"/><path d="M376.31307,161.02631v-3.33884h8.69801v3.33884z" fill="#4c4c4c" stroke="#4c4c4c"/></g><g data-paper-data="{&quot;index&quot;:null}" stroke-width="2"><path d="M323.07197,192.13849l-0.30534,-14.11641l6.34363,-0.50122l0.30533,14.11642z" fill="#4c4c4c" stroke="#4c4c4c"/><path d="M336.36398,189.63849l-0.30533,-14.11641l6.34363,-0.50122l0.30533,14.11642z" fill="#4c4c4c" stroke="#4c4c4c"/><path d="M349.656,187.88849l-0.30534,-14.11641l6.34363,-0.50122l0.30533,14.11642z" fill="#4c4c4c" stroke="#4c4c4c"/><path d="M361.54885,185.13849l-0.30534,-14.11641l6.34363,-0.50122l0.30533,14.11642z" fill="#4c4c4c" stroke="#4c4c4c"/><path d="M380.07812,186.94929c0,0 -20.32494,6.32877 -31.76469,8.33067c-12.32656,2.15708 -34.98089,3.09206 -34.98089,3.09206l-0.17989,-11.96702c0,0 21.57883,-2.0472 33.8582,-4.19602c4.03562,-0.70621 9.28777,-2.10464 14.40603,-3.62263c9.46984,-2.80858 18.48134,-6.02643 18.48134,-6.02643l0.17989,14.38937z" fill="#161616" stroke="#161616"/></g><g data-paper-data="{&quot;index&quot;:null}" stroke-width="2"><path d="M203.94379,192.3631l-2.34941,-13.92375l6.98256,-1.51079l2.34941,13.92377z" fill="#4c4c4c" stroke="#4c4c4c"/><path d="M189.11096,197.19086l-2.34941,-13.92375l6.98256,-1.51079l2.34942,13.92376z" fill="#4c4c4c" stroke="#4c4c4c"/><path d="M174.27815,202.01859l-2.34941,-13.92376l6.98256,-1.51079l2.34941,13.92377z" fill="#4c4c4c" stroke="#4c4c4c"/><path d="M160.30296,208.2384l-2.34941,-13.92375l6.98256,-1.51079l2.34941,13.92377z" fill="#4c4c4c" stroke="#4c4c4c"/><path d="M146.90855,213.70115l-2.34941,-13.92375l6.98256,-1.51079l2.34941,13.92377z" fill="#4c4c4c" stroke="#4c4c4c"/><path d="M131.07238,221.03056l-2.34941,-13.92375l6.98256,-1.51079l2.34941,13.92377z" fill="#4c4c4c" stroke="#4c4c4c"/><path d="M114.46335,225.44027l-2.34941,-13.92375l6.98257,-1.51079l2.34941,13.92377z" fill="#4c4c4c" stroke="#4c4c4c"/><path d="M98.05769,228.81045l-2.34941,-13.92376l6.98256,-1.51079l2.34941,13.92377z" fill="#4c4c4c" stroke="#4c4c4c"/><path d="M68.76025,228.98358l-2.34941,-13.92376l6.98256,-1.51079l2.34941,13.92377z" fill="#4c4c4c" stroke="#4c4c4c"/><path d="M82.98917,229.20997l-2.34941,-13.92375l6.98256,-1.51079l2.34941,13.92377z" fill="#4c4c4c" stroke="#4c4c4c"/><path d="M221.26686,192.52789c0,0 -15.47894,3.2059 -28.38328,8.56793c-13.29248,5.52331 -43.38067,19.95434 -72.00957,27.41512c-29.50124,7.68813 -59.41486,5.08559 -59.41486,5.08559l-1.76817,-11.76007c0,0 29.20476,2.51986 58.42766,-4.97943c27.87212,-7.15264 55.92315,-21.23323 68.92382,-26.67132c13.21149,-5.52628 30.97158,-8.69917 30.97158,-8.69917l3.2528,11.04136z" fill="#161616" stroke="#161616"/></g><g data-paper-data="{&quot;index&quot;:null}"><path d="M296.65214,173.54855c0,0 -22.48791,-0.82561 -42.50419,-1.38257c-13.30242,-0.02814 -36.59458,0.0722 -36.59458,0.0722c0,0 -0.20459,-0.95398 -5.3374,-1.55034c-4.19511,-0.48741 -13.17627,-0.63381 -15.6087,-0.67411c-0.69783,-0.01156 3.98091,-1.49798 5.24271,-2.53102c1.11844,-0.91566 -10.19785,-2.27697 -10.19785,-2.27697c0,0 28.80986,0.27634 50.65695,0.04058c24.08551,-0.815 44.84305,-2.27045 44.84305,-2.27045c0,0 1,5.83868 1,7.26631c0,0.02497 1.85055,0.55538 3.47496,1.18431c2.45082,0.94889 5.02504,2.12206 5.02504,2.12206z" fill="#161616" stroke="none" stroke-width="0"/><path d="M293.96055,169.95605c0,0 -11.52143,-0.33284 -12.81546,-0.9136c-1.29403,-0.58076 8.12936,-1.18952 8.12936,-1.18952z" fill="#878787" stroke="#878787" stroke-width="0.5"/><path d="M295.67746,173.55782l-10.85448,-4.65464l12.30377,-0.16964l10.85448,4.65463z" fill="#929292" stroke="none" stroke-width="2"/><path d="M286.15213,169.0119c0,0 0,-4.55399 0,-5.46575c0,-0.30428 0,-0.60873 0,-0.60873c0,0 6.5,0.21883 6.5,0.45495c0,0.82984 0,5.61954 0,5.61954z" fill="#929292" stroke="none" stroke-width="0"/><path d="M282.66366,168.69817c0,0 -32.81649,-1.65019 -49.47369,-2.13496c-14.78618,-0.43031 -40.88272,-1.30003 -40.88272,-1.30003c0,0 28.6027,0.54084 43.39659,1.02507c7.31923,0.23957 48.67525,1.90079 48.67525,1.90079l-1.71544,0.50913z" fill="#878787" stroke="#878787" stroke-width="0.5"/><path d="M282.97282,168.9418c0,0 -30.95683,0.40229 -45.74734,0.58225c-13.92685,0.16945 -40.56074,0.46788 -40.56074,0.46788c0,0 25.89289,-0.49029 39.55974,-0.73555c14.7,-0.2638 45.76689,-0.79568 45.76689,-0.79568l0.98146,0.4811z" fill="#878787" stroke="#878787" stroke-width="0.5"/><path d="M285.7177,169.49847c0,0 -20.62271,0.85617 -31.47037,1.29303c-11.61319,0.46769 -36.06889,1.42696 -36.06889,1.42696c0,0 21.05333,-0.99078 31.72347,-1.50592c10.86493,-0.52454 32.8923,-1.61361 32.8923,-1.61361l2.92348,0.39954z" fill="#878787" stroke="#878787" stroke-width="0.5"/></g></g></g></svg>