<svg version="1.1" xmlns="http://www.w3.org/2000/svg" xmlns:xlink="http://www.w3.org/1999/xlink" width="370.32117" height="116.87036" viewBox="0,0,370.32117,116.87036"><g transform="translate(-58.85341,-143.56482)"><g data-paper-data="{&quot;isPaintingLayer&quot;:true}" fill-rule="nonzero" stroke-linecap="butt" stroke-linejoin="miter" stroke-miterlimit="10" stroke-dasharray="" stroke-dashoffset="0" style="mix-blend-mode: normal"><g data-paper-data="{&quot;index&quot;:null}" stroke-width="2"><path d="M289.36236,157.90626l2.20995,5.55395l-46.62655,45.86672l-2.20995,-5.55395z" fill="#a4a4a4" stroke="#a4a4a4"/><path d="M246.35278,201.6263l1.15751,0.78382l-41.19121,49.58983l-1.25591,-1.38424z" fill="#a4a4a4" stroke="#a4a4a4"/><g><path d="M269.66799,173.47215l-66.1272,74.58112c0,0 -3.88281,-11.86873 -8.86706,-15.19286c-5.38371,-3.59046 -22.32928,-5.61252 -22.32928,-5.61252c0,0 10.51658,-12.37618 13.65076,-19.347c2.73173,-6.07567 4.11342,-20.16273 4.11342,-20.16273c0,0 12.94537,-2.42826 17.46986,-5.27458c4.08193,-2.56788 8.48631,-11.05383 8.48631,-11.05383c0,0 16.233,6.8763 24.71526,7.21518c8.71264,0.34812 28.88793,-5.15306 28.88793,-5.15306z" fill="#161616" stroke="#161616"/><path d="M241.64278,205.11632l-2.4575,3.75395l-23.02991,-38.82606z" fill="#a2a2a2" stroke="#a4a4a4"/><path d="M240.6111,202.74075l-1.40101,8.03008l-50.03921,-23.31879z" fill="#a2a2a2" stroke="#a4a4a4"/><path d="M236.14327,201.82995l1.46033,7.00791l-65.92738,19.02551z" fill="#a2a2a2" stroke="#a4a4a4"/></g></g><path d="M223.8805,197.29165l-3.27092,-32.38966l100.54505,-9.03065l3.27091,32.38966z" data-paper-data="{&quot;index&quot;:null}" fill="#161616" stroke="#161616" stroke-width="2"/><path d="M281.92586,223.27678l-14.47884,-7.91285l19.66224,-35.97772l14.47884,7.91286z" data-paper-data="{&quot;index&quot;:null}" fill="#161616" stroke="#161616" stroke-width="2"/><path d="M270.24545,229.34733l-3.34772,-14.10825l3.89193,-0.92351l3.34772,14.10825z" data-paper-data="{&quot;index&quot;:null}" fill="#161616" stroke="#161616" stroke-width="2"/><path d="M279.24545,233.34733l-3.34772,-14.10825l3.89193,-0.92351l3.34772,14.10825z" data-paper-data="{&quot;index&quot;:null}" fill="#161616" stroke="#161616" stroke-width="2"/><path d="M238.79927,208.00114l20.65172,-25.09496l14.28482,11.75559l-20.65171,25.09495z" data-paper-data="{&quot;index&quot;:null}" fill="#161616" stroke="#161616" stroke-width="2"/><path d="M208.5456,224.8111l-1.65414,-13.92641l39.5981,-3.5328l1.65414,13.9264z" data-paper-data="{&quot;index&quot;:null}" fill="#161616" stroke="#161616" stroke-width="2"/><path d="M194.52318,234.86652l14.57571,-21.51111l2.91308,1.94097l-14.57572,21.51111z" data-paper-data="{&quot;index&quot;:null}" fill="#161616" stroke="#161616" stroke-width="2"/><g data-paper-data="{&quot;index&quot;:null}" stroke-width="2"><path d="M427.31587,168.73149c0,0 -18.8935,9.35907 -18.94116,9.36376c-4.78423,0.47138 -15.01355,-3.07619 -21.07507,-3.16164c-4.47787,-0.06313 -12.62458,1.35022 -12.62458,1.35022l1.29093,-19.75482h52.18805l-0.1258,6.18691l-20.50654,0.52225l20.14295,1.41911z" fill="#161616" stroke="#161616"/><path d="M414.43796,157.64197v-3.89532h7.69439v3.89532z" fill="#161616" stroke="#161616"/><path d="M375.96601,156.52901v-6.95593h30.44302v6.95593z" fill="#161616" stroke="#161616"/><path d="M380.315,147.90366v-3.33884h8.69801v3.33884z" fill="#4c4c4c" stroke="#4c4c4c"/></g><g data-paper-data="{&quot;index&quot;:null}" stroke-width="2"><path d="M327.0739,179.01586l-0.30534,-14.11641l6.34363,-0.50122l0.30533,14.11642z" fill="#4c4c4c" stroke="#4c4c4c"/><path d="M340.36591,176.51586l-0.30533,-14.11641l6.34363,-0.50122l0.30533,14.11642z" fill="#4c4c4c" stroke="#4c4c4c"/><path d="M353.65793,174.76586l-0.30534,-14.11641l6.34363,-0.50122l0.30533,14.11642z" fill="#4c4c4c" stroke="#4c4c4c"/><path d="M365.55078,172.01586l-0.30534,-14.11641l6.34363,-0.50122l0.30533,14.11642z" fill="#4c4c4c" stroke="#4c4c4c"/><path d="M384.08005,173.82665c0,0 -20.32494,6.32877 -31.76469,8.33067c-12.32656,2.15708 -34.98089,3.09206 -34.98089,3.09206l-0.17989,-11.96702c0,0 21.57883,-2.0472 33.8582,-4.19602c4.03562,-0.70621 9.28777,-2.10464 14.40603,-3.62263c9.46984,-2.80858 18.48134,-6.02643 18.48134,-6.02643l0.17989,14.38937z" fill="#161616" stroke="#161616"/></g><g data-paper-data="{&quot;index&quot;:null}" stroke-width="2"><path d="M206.83956,175.93253l-0.34302,-14.11641l7.12653,-0.50122l0.34301,14.11642z" fill="#4c4c4c" stroke="#4c4c4c"/><path d="M191.47048,178.59918l-0.34302,-14.11641l7.12653,-0.50122l0.34302,14.11642z" fill="#4c4c4c" stroke="#4c4c4c"/><path d="M176.1014,181.26586l-0.34301,-14.11641l7.12653,-0.50122l0.34301,14.11642z" fill="#4c4c4c" stroke="#4c4c4c"/><path d="M160.38302,184.09918l-0.34302,-14.11641l7.12653,-0.50122l0.34301,14.11642z" fill="#4c4c4c" stroke="#4c4c4c"/><path d="M145.01395,186.93253l-0.34302,-14.11641l7.12653,-0.50122l0.34301,14.11642z" fill="#4c4c4c" stroke="#4c4c4c"/><path d="M129.29556,188.26586l-0.34302,-14.11641l7.12653,-0.50122l0.34301,14.11642z" fill="#4c4c4c" stroke="#4c4c4c"/><path d="M113.22788,189.59917l-0.34302,-14.11641l7.12654,-0.50122l0.34301,14.11642z" fill="#4c4c4c" stroke="#4c4c4c"/><path d="M97.50951,190.59917l-0.34301,-14.11641l7.12653,-0.50122l0.34301,14.11642z" fill="#4c4c4c" stroke="#4c4c4c"/><path d="M67.81924,192.93253l-0.34301,-14.11641l7.12653,-0.50122l0.34301,14.11642z" fill="#4c4c4c" stroke="#4c4c4c"/><path d="M83.53763,192.18253l-0.34302,-14.11641l7.12653,-0.50122l0.34301,14.11642z" fill="#4c4c4c" stroke="#4c4c4c"/><path d="M194.64865,183.00151c-13.94346,3.57446 -46.44647,7.24118 -75.84597,10.54978c-30.29532,3.40942 -58.86696,2.90764 -58.86696,2.90764l-0.07576,-11.89201c0,0 26.88179,0.65235 56.87472,-2.60979c28.60655,-3.11135 60.04326,-7.05459 73.68575,-10.58625c13.86372,-3.58893 31.89463,-4.20082 31.89463,-4.20082l1.6476,11.39201c0,0 -15.77769,0.96935 -29.31401,4.43944z" fill="#161616" stroke="#161616"/></g><g data-paper-data="{&quot;index&quot;:null}"><path d="M300.65406,157.40481c0,0 -2.57422,11.39107 -5.02504,20.60447c-1.62441,6.10669 -3.47496,11.25681 -3.47496,11.49923c0,13.86176 -1,70.55333 -1,70.55333c0,0 -20.75754,-14.13192 -44.84305,-22.04528c-21.84709,-2.28913 -50.65695,0.39402 -50.65695,0.39402c0,0 11.31629,-13.21786 10.19785,-22.1086c-1.2618,-10.03049 -5.94054,-24.46312 -5.24271,-24.57535c2.43243,-0.39131 11.41359,-1.81278 15.6087,-6.54537c5.13281,-5.79045 5.3374,-15.05326 5.3374,-15.05326c0,0 23.29216,0.97425 36.59458,0.70102c20.01628,-5.40789 42.50419,-13.42427 42.50419,-13.42427z" fill="#161616" stroke="none" stroke-width="0"/><path d="M293.27638,212.70737c0,0 -9.42339,-5.91086 -8.12936,-11.54984c1.29403,-5.639 12.81546,-8.87075 12.81546,-8.87075z" fill="#878787" stroke="#878787" stroke-width="0.5"/><path d="M311.98316,158.96198l-10.85448,45.19485l-12.30377,-1.64715l10.85448,-45.19492z" fill="#929292" stroke="none" stroke-width="2"/><path d="M296.65406,201.45398c0,0 0,46.50631 0,54.56378c0,2.29265 -6.5,4.41742 -6.5,4.41742c0,0 0,-2.95612 0,-5.91056c0,-8.8529 0,-53.07054 0,-53.07054z" fill="#929292" stroke="none" stroke-width="0"/><path d="M286.66558,204.50026l1.71544,4.94349c0,0 -41.35602,16.12986 -48.67525,18.456c-14.79389,4.70173 -43.39659,9.95308 -43.39659,9.95308c0,0 26.09654,-8.44467 40.88272,-12.62285c16.6572,-4.70693 49.47369,-20.72972 49.47369,-20.72972z" fill="#878787" stroke="#878787" stroke-width="0.5"/><path d="M286.97476,202.13481l-0.98146,4.67131c0,0 -31.06689,-5.16437 -45.76689,-7.72578c-13.66685,-2.38137 -39.55974,-7.14192 -39.55974,-7.14192c0,0 26.63389,2.89768 40.56074,4.54297c14.79051,1.74732 45.74734,5.65342 45.74734,5.65342z" fill="#878787" stroke="#878787" stroke-width="0.5"/><path d="M289.71962,196.72972l-2.92348,3.87939c0,0 -22.02737,-10.5745 -32.8923,-15.6676c-10.67014,-5.00182 -31.72347,-14.62196 -31.72347,-14.62196c0,0 24.4557,9.31418 36.06889,13.8553c10.84766,4.24176 31.47037,12.55487 31.47037,12.55487z" fill="#878787" stroke="#878787" stroke-width="0.5"/></g></g></g></svg>