<svg version="1.1" xmlns="http://www.w3.org/2000/svg" xmlns:xlink="http://www.w3.org/1999/xlink" width="366.11203" height="191.87504" viewBox="0,0,366.11203,191.87504"><g transform="translate(-56.75953,-84.06249)"><g data-paper-data="{&quot;isPaintingLayer&quot;:true}" fill-rule="nonzero" stroke-linecap="butt" stroke-linejoin="miter" stroke-miterlimit="10" stroke-dasharray="" stroke-dashoffset="0" style="mix-blend-mode: normal"><g data-paper-data="{&quot;index&quot;:null}" stroke-width="2"><path d="M232.93278,183.07553l2.20995,-2.3518l46.62655,19.42213l-2.20995,2.3518z" fill="#874444" stroke="#874444"/><path d="M195.26013,163.24015l1.25591,-0.58615l41.19121,20.99866l-1.15751,0.33193z" fill="#a4a4a4" stroke="#874444"/><g><path d="M259.86496,195.9064c0,0 -20.17529,-2.32948 -28.88793,-2.18204c-8.48226,0.14353 -24.71526,3.05525 -24.71526,3.05525c0,0 -4.40438,-3.59334 -8.48631,-4.68068c-4.52449,-1.20523 -17.46986,-2.23348 -17.46986,-2.23348c0,0 -1.38169,-5.96512 -4.11342,-8.53786c-3.13418,-2.95178 -13.65076,-8.19244 -13.65076,-8.19244c0,0 16.94557,-0.85621 22.32928,-2.37658c4.98425,-1.40757 8.86706,-6.43335 8.86706,-6.43335l66.1272,31.58117z" fill="#d14040" stroke="#d14040"/><path d="M206.35234,197.35792l23.02991,-16.4408l2.4575,1.5896z" fill="#a2a2a2" stroke="#874444"/><path d="M179.36784,189.98656l50.03921,-9.87428l1.40101,3.40036z" fill="#874444" stroke="#874444"/><path d="M161.87319,172.87457l65.92738,8.05628l-1.46033,2.96746z" fill="#874444" stroke="#874444"/></g></g><path d="M217.57747,235.03935l-3.27092,-32.38966l100.54505,-9.03065l3.27091,32.38966z" data-paper-data="{&quot;index&quot;:null}" fill="#d14040" stroke="#d14040" stroke-width="2"/><path d="M275.62283,261.02448l-14.47884,-7.91285l19.66224,-35.97772l14.47884,7.91286z" data-paper-data="{&quot;index&quot;:null}" fill="#d14040" stroke="#d14040" stroke-width="2"/><path d="M263.94242,267.09499l-3.34772,-14.10825l3.89193,-0.92351l3.34772,14.10825z" data-paper-data="{&quot;index&quot;:null}" fill="#d14040" stroke="#d14040" stroke-width="2"/><path d="M272.94242,271.09499l-3.34772,-14.10825l3.89193,-0.92351l3.34772,14.10825z" data-paper-data="{&quot;index&quot;:null}" fill="#d14040" stroke="#d14040" stroke-width="2"/><path d="M232.49624,245.7488l20.65172,-25.09496l14.28482,11.75559l-20.65171,25.09495z" data-paper-data="{&quot;index&quot;:null}" fill="#d14040" stroke="#d14040" stroke-width="2"/><path d="M202.24257,262.55876l-1.65414,-13.92641l39.5981,-3.5328l1.65414,13.9264z" data-paper-data="{&quot;index&quot;:null}" fill="#d14040" stroke="#d14040" stroke-width="2"/><path d="M188.22015,272.61418l14.57571,-21.51111l2.91308,1.94097l-14.57572,21.51111z" data-paper-data="{&quot;index&quot;:null}" fill="#d14040" stroke="#d14040" stroke-width="2"/><g data-paper-data="{&quot;index&quot;:null}" stroke-width="2"><path d="M420.51284,215.97919c0,0 -18.3935,-0.14093 -18.44116,-0.13624c-4.78423,0.47138 -15.01355,-3.07619 -21.07507,-3.16164c-4.47787,-0.06313 -12.62458,1.35022 -12.62458,1.35022l1.29093,-19.75482h52.18805l-0.1258,6.18691l-20.50654,0.52225l-0.13859,3.86053l19.78154,8.05858l-0.34875,3.0742z" fill="#d14040" stroke="#d14040"/><path d="M408.13493,195.38967v-3.89532h7.69439v3.89532z" fill="#d14040" stroke="#d14040"/><path d="M369.66298,194.27671v-6.95593h30.44302v6.95593z" fill="#d14040" stroke="#d14040"/><path d="M374.01197,185.65137v-3.33884h8.69801v3.33884z" fill="#990000" stroke="#990000"/></g><g data-paper-data="{&quot;index&quot;:null}" stroke-width="2"><path d="M320.77087,216.76356l-0.30534,-14.11641l6.34363,-0.50122l0.30533,14.11642z" fill="#990000" stroke="#990000"/><path d="M334.06288,214.26356l-0.30533,-14.11641l6.34363,-0.50122l0.30533,14.11642z" fill="#990000" stroke="#990000"/><path d="M347.3549,212.51356l-0.30534,-14.11641l6.34363,-0.50122l0.30533,14.11642z" fill="#990000" stroke="#990000"/><path d="M359.24775,209.76356l-0.30534,-14.11641l6.34363,-0.50122l0.30533,14.11642z" fill="#990000" stroke="#990000"/><path d="M377.77702,211.57435c0,0 -20.32494,6.32877 -31.76469,8.33067c-12.32656,2.15708 -34.98089,3.09206 -34.98089,3.09206l-0.17989,-11.96702c0,0 21.57883,-2.0472 33.8582,-4.19602c4.03562,-0.70621 9.28777,-2.10464 14.40603,-3.62263c9.46984,-2.80858 18.48134,-6.02643 18.48134,-6.02643l0.17989,14.38937z" fill="#d14040" stroke="#d14040"/></g><g data-paper-data="{&quot;index&quot;:null}" stroke-width="2"><path d="M201.25285,215.05329l-2.77237,-13.84575l6.93331,-1.72274l2.77236,13.84576z" fill="#990000" stroke="#990000"/><path d="M186.57393,220.33052l-2.77237,-13.84575l6.93331,-1.72274l2.77237,13.84576z" fill="#990000" stroke="#990000"/><path d="M171.89502,225.60774l-2.77236,-13.84575l6.93331,-1.72274l2.77236,13.84576z" fill="#990000" stroke="#990000"/><path d="M157.45909,232.36526l-2.77237,-13.84575l6.93331,-1.72274l2.77236,13.84576z" fill="#990000" stroke="#990000"/><path d="M143.02227,237.09249l-2.77237,-13.84575l6.93331,-1.72274l2.77236,13.84576z" fill="#990000" stroke="#990000"/><path d="M128.74219,242.80748l-2.77237,-13.84575l6.93331,-1.72274l2.77236,13.84576z" fill="#990000" stroke="#990000"/><path d="M113.02634,249.11222l-2.77237,-13.84575l6.93332,-1.72274l2.77236,13.84576z" fill="#990000" stroke="#990000"/><path d="M97.37931,251.85175l-2.77236,-13.84575l6.93331,-1.72274l2.77236,13.84576z" fill="#990000" stroke="#990000"/><path d="M67.24727,255.77369l-2.77236,-13.84575l6.93331,-1.72274l2.77236,13.84576z" fill="#990000" stroke="#990000"/><path d="M82.5599,254.02333l-2.77237,-13.84575l6.93331,-1.72274l2.77236,13.84576z" fill="#990000" stroke="#990000"/><path d="M190.46369,224.11879c-13.1181,5.92556 -43.25364,20.33869 -71.64205,28.66789c-29.25341,8.58302 -58.73162,7.82022 -58.73162,7.82022l-2.1255,-11.70077c0,0 27.78215,0.87419 56.76311,-7.51159c4.86865,-1.40877 9.78242,-3.00912 14.64445,-4.72172c22.74169,-8.01052 44.35159,-18.47686 54.92095,-23.28121c13.03705,-5.92606 30.69228,-9.63836 30.69228,-9.63836l3.58756,10.93718c0,0 -15.37412,3.67582 -28.10918,9.42836z" fill="#d14040" stroke="#d14040"/></g><g data-paper-data="{&quot;index&quot;:null}"><path d="M294.35104,198.08345c0,0 -22.48791,-8.8715 -42.50419,-14.85624c-13.30242,-0.30238 -36.59458,0.77581 -36.59458,0.77581c0,0 -0.20459,-10.2509 -5.3374,-16.659c-4.19511,-5.23742 -13.17627,-6.81062 -15.6087,-7.24362c-0.69783,-0.12423 3.98091,-16.09646 5.24271,-27.19686c1.11844,-9.83917 -10.19785,-24.46699 -10.19785,-24.46699c0,0 28.80986,2.96928 50.65695,0.43599c24.08551,-8.75748 44.84305,-24.3969 44.84305,-24.3969c0,0 1,62.73903 1,78.07954c0,0.26833 1.85055,5.96773 3.47496,12.72587c2.45082,10.19623 5.02504,22.80239 5.02504,22.80239z" fill="#d14040" stroke="none" stroke-width="0"/><path d="M291.65945,159.48041c0,0 -11.52143,-3.57647 -12.81546,-9.81697c-1.29403,-6.2405 8.12936,-12.78187 8.12936,-12.78187z" fill="#874444" stroke="#874444" stroke-width="0.5"/><path d="M293.37636,198.1829l-10.85448,-50.01597l12.30377,-1.82285l10.85448,50.01596z" fill="#914949" stroke="none" stroke-width="2"/><path d="M283.85103,149.33535c0,0 0,-48.93457 0,-58.7318c0,-3.26958 0,-6.54106 0,-6.54106c0,0 6.5,2.35143 6.5,4.88858c0,8.91697 0,60.38427 0,60.38427z" fill="#914949" stroke="none" stroke-width="0"/><path d="M280.36256,145.96411c0,0 -32.81649,-17.73206 -49.47369,-22.94106c-14.78618,-4.62391 -40.88272,-13.96941 -40.88272,-13.96941c0,0 28.6027,5.8116 43.39659,11.01485c7.31923,2.57428 48.67525,20.42482 48.67525,20.42482l-1.71544,5.47079z" fill="#874444" stroke="#874444" stroke-width="0.5"/><path d="M280.67172,148.58187c0,0 -30.95683,4.32276 -45.74734,6.2565c-13.92685,1.82083 -40.56074,5.02758 -40.56074,5.02758c0,0 25.89289,-5.2684 39.55974,-7.9038c14.7,-2.83462 45.76689,-8.5499 45.76689,-8.5499l0.98146,5.16962z" fill="#874444" stroke="#874444" stroke-width="0.5"/><path d="M283.4166,154.56352c0,0 -20.62271,9.19983 -31.47037,13.89413c-11.61319,5.02557 -36.06889,15.33329 -36.06889,15.33329c0,0 21.05333,-10.6464 31.72347,-16.18173c10.86493,-5.63638 32.8923,-17.3389 32.8923,-17.3389l2.92348,4.29321z" fill="#874444" stroke="#874444" stroke-width="0.5"/></g></g></g></svg>