<svg version="1.1" xmlns="http://www.w3.org/2000/svg" xmlns:xlink="http://www.w3.org/1999/xlink" width="366.6591" height="94.62503" viewBox="0,0,366.6591,94.62503"><g transform="translate(-56.51357,-132.68749)"><g data-paper-data="{&quot;isPaintingLayer&quot;:true}" fill-rule="nonzero" stroke-linecap="butt" stroke-linejoin="miter" stroke-miterlimit="10" stroke-dasharray="" stroke-dashoffset="0" style="mix-blend-mode: normal"><g data-paper-data="{&quot;index&quot;:null}" stroke="#874444" stroke-width="2"><path d="M233.2339,150.04916l2.20995,-0.46298l46.62655,3.82346l-2.20995,0.46298z" fill="#a4a4a4"/><path d="M195.56125,146.14434l1.25591,-0.11539l41.19121,4.13382l-1.15751,0.06534z" fill="#a4a4a4"/><g><path d="M260.16608,152.57507c0,0 -20.17529,-0.45858 -28.88793,-0.42956c-8.48226,0.02825 -24.71526,0.60146 -24.71526,0.60146c0,0 -4.40438,-0.70739 -8.48631,-0.92145c-4.52449,-0.23727 -17.46986,-0.43969 -17.46986,-0.43969c0,0 -1.38169,-1.1743 -4.11342,-1.68077c-3.13418,-0.58109 -13.65076,-1.61277 -13.65076,-1.61277c0,0 16.94557,-0.16856 22.32928,-0.46786c4.98425,-0.2771 8.86706,-1.26648 8.86706,-1.26648l66.1272,6.2171z" fill="#d14040"/><path d="M206.65346,152.8608l23.02991,-3.23655l2.4575,0.31293z" fill="#a2a2a2"/><path d="M179.66896,151.40968l50.03921,-1.94386l1.40101,0.66939z" fill="#a2a2a2"/><path d="M162.17431,148.04099l65.92738,1.58597l-1.46033,0.58418z" fill="#a2a2a2"/></g></g><path d="M217.87859,186.41432l-3.27092,-32.38966l100.54505,-9.03065l3.27091,32.38966z" data-paper-data="{&quot;index&quot;:null}" fill="#d14040" stroke="#d14040" stroke-width="2"/><path d="M275.92395,212.39945l-14.47884,-7.91285l19.66224,-35.97772l14.47884,7.91286z" data-paper-data="{&quot;index&quot;:null}" fill="#d14040" stroke="#d14040" stroke-width="2"/><path d="M264.24354,218.46998l-3.34772,-14.10825l3.89193,-0.92351l3.34772,14.10825z" data-paper-data="{&quot;index&quot;:null}" fill="#d14040" stroke="#d14040" stroke-width="2"/><path d="M273.24354,222.46998l-3.34772,-14.10825l3.89193,-0.92351l3.34772,14.10825z" data-paper-data="{&quot;index&quot;:null}" fill="#d14040" stroke="#d14040" stroke-width="2"/><path d="M232.79736,197.12379l20.65172,-25.09496l14.28482,11.75559l-20.65171,25.09495z" data-paper-data="{&quot;index&quot;:null}" fill="#d14040" stroke="#d14040" stroke-width="2"/><path d="M202.54369,213.93375l-1.65414,-13.92641l39.5981,-3.5328l1.65414,13.9264z" data-paper-data="{&quot;index&quot;:null}" fill="#d14040" stroke="#d14040" stroke-width="2"/><path d="M188.52127,223.98917l14.57571,-21.51111l2.91308,1.94097l-14.57572,21.51111z" data-paper-data="{&quot;index&quot;:null}" fill="#d14040" stroke="#d14040" stroke-width="2"/><g data-paper-data="{&quot;index&quot;:null}" stroke-width="2"><path d="M420.81396,167.35418c0,0 -18.3935,-0.14093 -18.44116,-0.13624c-4.78423,0.47138 -15.01355,-3.07619 -21.07507,-3.16164c-4.47787,-0.06313 -12.62458,1.35022 -12.62458,1.35022l1.29093,-19.75482h52.18805l-0.1258,6.18691l-20.50654,0.52225l-0.13859,3.86053l19.78154,8.05858l-0.34875,3.0742z" fill="#d14040" stroke="#d14040"/><path d="M408.43605,146.76463v-3.89532h7.69439v3.89532z" fill="#d14040" stroke="#d14040"/><path d="M369.9641,145.65168v-6.95593h30.44302v6.95593z" fill="#d14040" stroke="#d14040"/><path d="M374.31309,137.02633v-3.33884h8.69801v3.33884z" fill="#990000" stroke="#990000"/></g><g data-paper-data="{&quot;index&quot;:null}" stroke-width="2"><path d="M321.07199,168.13852l-0.30534,-14.11641l6.34363,-0.50122l0.30533,14.11642z" fill="#990000" stroke="#990000"/><path d="M334.364,165.63852l-0.30533,-14.11641l6.34363,-0.50122l0.30533,14.11642z" fill="#990000" stroke="#990000"/><path d="M347.65602,163.88852l-0.30534,-14.11641l6.34363,-0.50122l0.30533,14.11642z" fill="#990000" stroke="#990000"/><path d="M359.54887,161.13852l-0.30534,-14.11641l6.34363,-0.50122l0.30533,14.11642z" fill="#990000" stroke="#990000"/><path d="M378.07814,162.94932c0,0 -20.32494,6.32877 -31.76469,8.33067c-12.32656,2.15708 -34.98089,3.09206 -34.98089,3.09206l-0.17989,-11.96702c0,0 21.57883,-2.0472 33.8582,-4.19602c4.03562,-0.70621 9.28777,-2.10464 14.40603,-3.62263c9.46984,-2.80858 18.48134,-6.02643 18.48134,-6.02643l0.17989,14.38937z" fill="#d14040" stroke="#d14040"/></g><g data-paper-data="{&quot;index&quot;:null}" stroke-width="2"><path d="M201.94381,168.36312l-2.34941,-13.92375l6.98256,-1.51079l2.34941,13.92377z" fill="#990000" stroke="#990000"/><path d="M187.11098,173.19089l-2.34941,-13.92375l6.98256,-1.51079l2.34942,13.92376z" fill="#990000" stroke="#990000"/><path d="M172.27817,178.01862l-2.34941,-13.92376l6.98256,-1.51079l2.34941,13.92377z" fill="#990000" stroke="#990000"/><path d="M158.30298,184.23843l-2.34941,-13.92375l6.98256,-1.51079l2.34941,13.92377z" fill="#990000" stroke="#990000"/><path d="M144.90858,189.70118l-2.34941,-13.92375l6.98256,-1.51079l2.34941,13.92377z" fill="#990000" stroke="#990000"/><path d="M129.0724,197.03054l-2.34941,-13.92375l6.98256,-1.51079l2.34941,13.92377z" fill="#990000" stroke="#990000"/><path d="M112.46337,201.44028l-2.34941,-13.92375l6.98257,-1.51079l2.34941,13.92377z" fill="#990000" stroke="#990000"/><path d="M96.05771,204.81045l-2.34941,-13.92376l6.98256,-1.51079l2.34941,13.92377z" fill="#990000" stroke="#990000"/><path d="M66.76027,204.98356l-2.34941,-13.92376l6.98256,-1.51079l2.34941,13.92377z" fill="#990000" stroke="#990000"/><path d="M80.98919,205.20998l-2.34941,-13.92375l6.98256,-1.51079l2.34941,13.92377z" fill="#990000" stroke="#990000"/><path d="M219.26688,168.52792c0,0 -15.47894,3.2059 -28.38328,8.56793c-13.29248,5.52331 -43.38067,19.95434 -72.00957,27.41512c-29.50124,7.68813 -59.41486,5.08559 -59.41486,5.08559l-1.76817,-11.76007c0,0 29.20476,2.51986 58.42766,-4.97943c27.87212,-7.15264 55.92315,-21.23323 68.92382,-26.67132c13.21149,-5.52628 30.97158,-8.69917 30.97158,-8.69917l3.2528,11.04136z" fill="#d14040" stroke="#d14040"/></g><g data-paper-data="{&quot;index&quot;:null}"><path d="M294.65216,149.54858c0,0 -22.48791,-0.82561 -42.50419,-1.38257c-13.30242,-0.02814 -36.59458,0.0722 -36.59458,0.0722c0,0 -0.20459,-0.95398 -5.3374,-1.55034c-4.19511,-0.48741 -13.17627,-0.63381 -15.6087,-0.67411c-0.69783,-0.01156 3.98091,-1.49798 5.24271,-2.53102c1.11844,-0.91566 -10.19785,-2.27697 -10.19785,-2.27697c0,0 28.80986,0.27634 50.65695,0.04058c24.08551,-0.815 44.84305,-2.27045 44.84305,-2.27045c0,0 1,5.83868 1,7.26631c0,0.02497 1.85055,0.55538 3.47496,1.18431c2.45082,0.94889 5.02504,2.12206 5.02504,2.12206z" fill="#d14040" stroke="none" stroke-width="0"/><path d="M291.96057,145.95608c0,0 -11.52143,-0.33284 -12.81546,-0.9136c-1.29403,-0.58076 8.12936,-1.18952 8.12936,-1.18952z" fill="#874444" stroke="#874444" stroke-width="0.5"/><path d="M293.67748,149.55785l-10.85448,-4.65464l12.30377,-0.16964l10.85448,4.65463z" fill="#914949" stroke="none" stroke-width="2"/><path d="M284.15215,145.01192c0,0 0,-4.55399 0,-5.46575c0,-0.30428 0,-0.60873 0,-0.60873c0,0 6.5,0.21883 6.5,0.45495c0,0.82984 0,5.61954 0,5.61954z" fill="#914949" stroke="none" stroke-width="0"/><path d="M280.66368,144.6982c0,0 -32.81649,-1.65019 -49.47369,-2.13496c-14.78618,-0.43031 -40.88272,-1.30003 -40.88272,-1.30003c0,0 28.6027,0.54084 43.39659,1.02507c7.31923,0.23957 48.67525,1.90079 48.67525,1.90079l-1.71544,0.50913z" fill="#878787" stroke="#874444" stroke-width="0.5"/><path d="M280.97284,144.94183c0,0 -30.95683,0.40229 -45.74734,0.58225c-13.92685,0.16945 -40.56074,0.46788 -40.56074,0.46788c0,0 25.89289,-0.49029 39.55974,-0.73555c14.7,-0.2638 45.76689,-0.79568 45.76689,-0.79568l0.98146,0.4811z" fill="#878787" stroke="#874444" stroke-width="0.5"/><path d="M283.71772,145.49849c0,0 -20.62271,0.85617 -31.47037,1.29303c-11.61319,0.46769 -36.06889,1.42696 -36.06889,1.42696c0,0 21.05333,-0.99078 31.72347,-1.50592c10.86493,-0.52454 32.8923,-1.61361 32.8923,-1.61361l2.92348,0.39954z" fill="#878787" stroke="#874444" stroke-width="0.5"/></g></g></g></svg>