<svg version="1.1" xmlns="http://www.w3.org/2000/svg" xmlns:xlink="http://www.w3.org/1999/xlink" width="370.32117" height="96.37037" viewBox="0,0,370.32117,96.37037"><g transform="translate(-54.85341,-131.81483)"><g data-paper-data="{&quot;isPaintingLayer&quot;:true}" fill-rule="nonzero" stroke-linecap="butt" stroke-linejoin="miter" stroke-miterlimit="10" stroke-dasharray="" stroke-dashoffset="0" style="mix-blend-mode: normal"><g data-paper-data="{&quot;index&quot;:null}" stroke-width="2"><path d="M285.36236,146.15628l2.20995,4.10782l-46.62655,33.924l-2.20995,-4.10782z" fill="#a4a4a4" stroke="#a4a4a4"/><path d="M242.35278,178.49254l1.15751,0.57973l-41.19121,36.67769l-1.25591,-1.02381z" fill="#a4a4a4" stroke="#874444"/><g><path d="M265.66799,157.66915l-66.1272,55.16178c0,0 -3.88281,-8.77836 -8.86706,-11.23696c-5.38371,-2.65558 -22.32928,-4.15114 -22.32928,-4.15114c0,0 10.51658,-9.15368 13.65076,-14.30945c2.73173,-4.49369 4.11342,-14.91278 4.11342,-14.91278c0,0 12.94537,-1.79599 17.46986,-3.90119c4.08193,-1.89926 8.48631,-8.17565 8.48631,-8.17565c0,0 16.233,5.08586 24.71526,5.3365c8.71264,0.25748 28.88793,-3.81131 28.88793,-3.81131z" fill="#d14040" stroke="#d14040"/><path d="M237.64278,181.07386l-2.4575,2.7765l-23.02991,-28.71658z" fill="#a2a2a2" stroke="#a4a4a4"/><path d="M236.6111,179.31681l-1.40101,5.93922l-50.03921,-17.24707z" fill="#a2a2a2" stroke="#874444"/><path d="M232.14327,178.64314l1.46033,5.1832l-65.92738,14.07167z" fill="#a2a2a2" stroke="#874444"/></g></g><path d="M219.8805,185.54167l-3.27092,-32.38966l100.54505,-9.03065l3.27091,32.38966z" data-paper-data="{&quot;index&quot;:null}" fill="#d14040" stroke="#d14040" stroke-width="2"/><path d="M277.92586,211.52679l-14.47884,-7.91285l19.66224,-35.97772l14.47884,7.91286z" data-paper-data="{&quot;index&quot;:null}" fill="#161616" stroke="#d14040" stroke-width="2"/><path d="M266.24545,217.59732l-3.34772,-14.10825l3.89193,-0.92351l3.34772,14.10825z" data-paper-data="{&quot;index&quot;:null}" fill="#161616" stroke="#d14040" stroke-width="2"/><path d="M275.24545,221.59732l-3.34772,-14.10825l3.89193,-0.92351l3.34772,14.10825z" data-paper-data="{&quot;index&quot;:null}" fill="#161616" stroke="#d14040" stroke-width="2"/><path d="M234.79927,196.25113l20.65172,-25.09496l14.28482,11.75559l-20.65171,25.09495z" data-paper-data="{&quot;index&quot;:null}" fill="#161616" stroke="#161616" stroke-width="2"/><path d="M204.5456,213.06109l-1.65414,-13.92641l39.5981,-3.5328l1.65414,13.9264z" data-paper-data="{&quot;index&quot;:null}" fill="#d14040" stroke="#d14040" stroke-width="2"/><path d="M190.52318,223.11651l14.57571,-21.51111l2.91308,1.94097l-14.57572,21.51111z" data-paper-data="{&quot;index&quot;:null}" fill="#d14040" stroke="#d14040" stroke-width="2"/><g data-paper-data="{&quot;index&quot;:null}" stroke-width="2"><path d="M422.81587,159.48153c0,0 -18.3935,6.85907 -18.44116,6.86376c-4.78423,0.47138 -15.01355,-3.07619 -21.07507,-3.16164c-4.47787,-0.06313 -12.62458,1.35022 -12.62458,1.35022l1.29093,-19.75482h52.18805l-0.1258,6.18691l-20.50654,0.52225l-0.13859,3.86053l19.78154,0.55858z" fill="#d14040" stroke="#d14040"/><path d="M410.43796,145.892v-3.89532h7.69439v3.89532z" fill="#d14040" stroke="#d14040"/><path d="M371.96601,144.77902v-6.95593h30.44302v6.95593z" fill="#d14040" stroke="#d14040"/><path d="M376.315,136.15367v-3.33884h8.69801v3.33884z" fill="#990000" stroke="#990000"/></g><g data-paper-data="{&quot;index&quot;:null}" stroke-width="2"><path d="M323.0739,167.26589l-0.30534,-14.11641l6.34363,-0.50122l0.30533,14.11642z" fill="#990000" stroke="#990000"/><path d="M336.36591,164.76589l-0.30533,-14.11641l6.34363,-0.50122l0.30533,14.11642z" fill="#990000" stroke="#990000"/><path d="M349.65793,163.01589l-0.30534,-14.11641l6.34363,-0.50122l0.30533,14.11642z" fill="#990000" stroke="#990000"/><path d="M361.55078,160.26589l-0.30534,-14.11641l6.34363,-0.50122l0.30533,14.11642z" fill="#990000" stroke="#990000"/><path d="M380.08005,162.07666c0,0 -20.32494,6.32877 -31.76469,8.33067c-12.32656,2.15708 -34.98089,3.09206 -34.98089,3.09206l-0.17989,-11.96702c0,0 21.57883,-2.0472 33.8582,-4.19602c4.03562,-0.70621 9.28777,-2.10464 14.40603,-3.62263c9.46984,-2.80858 18.48134,-6.02643 18.48134,-6.02643l0.17989,14.38937z" fill="#d14040" stroke="#d14040"/></g><g data-paper-data="{&quot;index&quot;:null}" stroke-width="2"><path d="M202.83956,164.18254l-0.34302,-14.11641l7.12653,-0.50122l0.34301,14.11642z" fill="#990000" stroke="#990000"/><path d="M187.47048,166.84919l-0.34302,-14.11641l7.12653,-0.50122l0.34302,14.11642z" fill="#990000" stroke="#990000"/><path d="M172.1014,169.51589l-0.34301,-14.11641l7.12653,-0.50122l0.34301,14.11642z" fill="#990000" stroke="#990000"/><path d="M156.38302,172.34919l-0.34302,-14.11641l7.12653,-0.50122l0.34301,14.11642z" fill="#990000" stroke="#990000"/><path d="M141.01395,175.18254l-0.34302,-14.11641l7.12653,-0.50122l0.34301,14.11642z" fill="#990000" stroke="#990000"/><path d="M125.29556,176.51589l-0.34302,-14.11641l7.12653,-0.50122l0.34301,14.11642z" fill="#990000" stroke="#990000"/><path d="M109.22788,177.84918l-0.34302,-14.11641l7.12654,-0.50122l0.34301,14.11642z" fill="#990000" stroke="#990000"/><path d="M93.50951,178.84918l-0.34301,-14.11641l7.12653,-0.50122l0.34301,14.11642z" fill="#990000" stroke="#990000"/><path d="M63.81924,181.18254l-0.34301,-14.11641l7.12653,-0.50122l0.34301,14.11642z" fill="#990000" stroke="#990000"/><path d="M79.53763,180.43254l-0.34302,-14.11641l7.12653,-0.50122l0.34301,14.11642z" fill="#990000" stroke="#990000"/><path d="M190.64865,171.25154c-13.94346,3.57446 -46.44647,7.24118 -75.84597,10.54978c-30.29532,3.40942 -58.86696,2.90764 -58.86696,2.90764l-0.07576,-11.89201c0,0 26.88179,0.65235 56.87472,-2.60979c28.60655,-3.11135 60.04326,-7.05459 73.68575,-10.58625c13.86372,-3.58893 31.89463,-4.20082 31.89463,-4.20082l1.6476,11.39201c0,0 -15.77769,0.96935 -29.31401,4.43944z" fill="#d14040" stroke="#d14040"/></g><g data-paper-data="{&quot;index&quot;:null}"><path d="M296.65406,145.63694c0,0 -2.57422,9.12656 -5.02504,16.50837c-1.62441,4.8927 -3.47496,9.01899 -3.47496,9.21322c0,11.10609 -1,56.52756 -1,56.52756c0,0 -20.75754,-11.32254 -44.84305,-17.66275c-21.84709,-1.83406 -50.65695,0.31569 -50.65695,0.31569c0,0 11.31629,-10.59019 10.19785,-17.71348c-1.2618,-8.03646 -5.94054,-19.59993 -5.24271,-19.68985c2.43243,-0.31352 11.41359,-1.4524 15.6087,-5.24417c5.13281,-4.63933 5.3374,-12.06072 5.3374,-12.06072c0,0 23.29216,0.78057 36.59458,0.56166c20.01628,-4.33282 42.50419,-10.75557 42.50419,-10.75557z" fill="#d14040" stroke="none" stroke-width="0"/><path d="M289.27638,189.9455c0,0 -9.42339,-4.7358 -8.12936,-9.25377c1.29403,-4.51798 12.81546,-7.10727 12.81546,-7.10727z" fill="#874444" stroke="#874444" stroke-width="0.5"/><path d="M307.98316,146.88455l-10.85448,36.21026l-12.30377,-1.3197l10.85448,-36.21032z" fill="#914949" stroke="none" stroke-width="2"/><path d="M292.65406,180.92927c0,0 0,37.26101 0,43.71668c0,1.83688 -6.5,3.53925 -6.5,3.53925c0,0 0,-2.36845 0,-4.73556c0,-7.09297 0,-42.52029 0,-42.52029z" fill="#914949" stroke="none" stroke-width="0"/><path d="M282.66558,183.36997l1.71544,3.96074c0,0 -41.35602,12.9233 -48.67525,14.78701c-14.79389,3.76704 -43.39659,7.97444 -43.39659,7.97444c0,0 26.09654,-6.7659 40.88272,-10.11347c16.6572,-3.77121 49.47369,-16.60872 49.47369,-16.60872z" fill="#874444" stroke="#874444" stroke-width="0.5"/><path d="M282.97476,181.47475l-0.98146,3.74267c0,0 -31.06689,-4.13771 -45.76689,-6.18992c-13.66685,-1.90796 -39.55974,-5.72213 -39.55974,-5.72213c0,0 26.63389,2.32163 40.56074,3.63984c14.79051,1.39996 45.74734,4.52954 45.74734,4.52954z" fill="#874444" stroke="#874444" stroke-width="0.5"/><path d="M285.71962,177.14417l-2.92348,3.10818c0,0 -22.02737,-8.47232 -32.8923,-12.55293c-10.67014,-4.00747 -31.72347,-11.71516 -31.72347,-11.71516c0,0 24.4557,7.46255 36.06889,11.10091c10.84766,3.39851 31.47037,10.059 31.47037,10.059z" fill="#874444" stroke="#874444" stroke-width="0.5"/></g></g></g></svg>