<svg version="1.1" xmlns="http://www.w3.org/2000/svg" xmlns:xlink="http://www.w3.org/1999/xlink" width="126.66942" height="28.74" viewBox="0,0,126.66942,28.74"><g transform="translate(-188.38991,-165.63)"><g data-paper-data="{&quot;isPaintingLayer&quot;:true}" fill-rule="nonzero" stroke="none" stroke-width="1" stroke-linecap="butt" stroke-linejoin="miter" stroke-miterlimit="10" stroke-dasharray="" stroke-dashoffset="0" style="mix-blend-mode: normal"><path d="M310.23631,194.37h-117.0236c-2.66297,0 -4.82281,-0.85 -4.82281,-1.89v-24.96c0,-1 2.15983,-1.89 4.82281,-1.89h117.0236c2.66297,0 4.82281,0.84 4.82281,1.89v25c0.02455,1 -2.15983,1.85 -4.82281,1.85z" fill="#1c1c1c" opacity="0.4"/><path d="M197.9663,184.16v-9.19h12.77v9.19z" fill="#ffffff"/><path d="M213.20118,172.47c0.98326,0.27992 1.74444,1.06012 2,2.05c0.34835,1.85595 0.51248,3.74178 0.49,5.63c0.0123,1.87789 -0.15175,3.75278 -0.49,5.6c-0.2543,0.99269 -1.01526,1.77648 -2,2.06c-1.83,0.48 -9.14,0.48 -9.14,0.48c0,0 -7.28,0 -9.12,-0.49c-0.99637,-0.28479 -1.77521,-1.06363 -2.06,-2.06c-0.64046,-3.71258 -0.64046,-7.50742 0,-11.22c0.27582,-1.00789 1.05621,-1.79964 2.06,-2.09c1.83,-0.47 9.12,-0.47 9.12,-0.47c0,0 7.31,0 9.14,0.51zM201.74118,176.61v7l6.07,-3.49l-6.07,-3.5z" fill="#ff0000"/><text transform="translate(217.58331,185.0125) scale(0.4,0.4)" font-size="40" xml:space="preserve" fill="#ffffff" fill-rule="nonzero" stroke="none" stroke-width="1" stroke-linecap="butt" stroke-linejoin="miter" stroke-miterlimit="10" stroke-dasharray="" stroke-dashoffset="0" font-family="Sans Serif" font-weight="normal" text-anchor="start" style="mix-blend-mode: normal"><tspan x="0" dy="0">ハニワトーン</tspan></text></g></g></svg>