<svg version="1.1" xmlns="http://www.w3.org/2000/svg" xmlns:xlink="http://www.w3.org/1999/xlink" width="369.09662" height="94.62503" viewBox="0,0,369.09662,94.62503"><g transform="translate(-55.35811,-132.68749)"><g data-paper-data="{&quot;isPaintingLayer&quot;:true}" fill-rule="nonzero" stroke-linecap="butt" stroke-linejoin="miter" stroke-miterlimit="10" stroke-dasharray="" stroke-dashoffset="0" style="mix-blend-mode: normal"><g data-paper-data="{&quot;index&quot;:null}" stroke-width="2"><path d="M284.64251,147.02896l2.20995,0.46298l-46.62655,3.82346l-2.20995,-0.46298z" fill="#a4a4a4" stroke="#874444"/><path d="M241.63293,150.67347l1.15751,0.06534l-41.19121,4.13382l-1.25591,-0.11539z" fill="#a4a4a4" stroke="#a4a4a4"/><g><path d="M264.94814,148.3265l-66.1272,6.2171c0,0 -3.88281,-0.98938 -8.86706,-1.26648c-5.38371,-0.2993 -22.32928,-0.46786 -22.32928,-0.46786c0,0 10.51658,-1.03168 13.65076,-1.61277c2.73173,-0.50647 4.11342,-1.68077 4.11342,-1.68077c0,0 12.94537,-0.20242 17.46986,-0.43969c4.08193,-0.21406 8.48631,-0.92145 8.48631,-0.92145c0,0 16.233,0.57321 24.71526,0.60146c8.71264,0.02902 28.88793,-0.42956 28.88793,-0.42956z" fill="#d14040" stroke="#d14040"/><path d="M236.92293,150.96437l-2.4575,0.31293l-23.02991,-3.23655z" fill="#a2a2a2" stroke="#874444"/><path d="M235.89125,150.76635l-1.40101,0.66939l-50.03921,-1.94386z" fill="#a2a2a2" stroke="#874444"/><path d="M231.42342,150.69044l1.46033,0.58418l-65.92738,1.58597z" fill="#a2a2a2" stroke="#874444"/></g></g><path d="M219.16065,186.41432l-3.27092,-32.38966l100.54505,-9.03065l3.27091,32.38966z" data-paper-data="{&quot;index&quot;:null}" fill="#d14040" stroke="#d14040" stroke-width="2"/><path d="M277.20601,212.39944l-14.47884,-7.91285l19.66224,-35.97772l14.47884,7.91286z" data-paper-data="{&quot;index&quot;:null}" fill="#d14040" stroke="#d14040" stroke-width="2"/><path d="M265.5256,218.46998l-3.34772,-14.10825l3.89193,-0.92351l3.34772,14.10825z" data-paper-data="{&quot;index&quot;:null}" fill="#d14040" stroke="#d14040" stroke-width="2"/><path d="M274.5256,222.46998l-3.34772,-14.10825l3.89193,-0.92351l3.34772,14.10825z" data-paper-data="{&quot;index&quot;:null}" fill="#d14040" stroke="#d14040" stroke-width="2"/><path d="M234.07942,197.12379l20.65172,-25.09496l14.28482,11.75559l-20.65171,25.09495z" data-paper-data="{&quot;index&quot;:null}" fill="#d14040" stroke="#d14040" stroke-width="2"/><path d="M203.82575,213.93375l-1.65414,-13.92641l39.5981,-3.5328l1.65414,13.9264z" data-paper-data="{&quot;index&quot;:null}" fill="#d14040" stroke="#d14040" stroke-width="2"/><path d="M189.80333,223.98917l14.57571,-21.51111l2.91308,1.94097l-14.57572,21.51111z" data-paper-data="{&quot;index&quot;:null}" fill="#d14040" stroke="#d14040" stroke-width="2"/><g data-paper-data="{&quot;index&quot;:null}" stroke-width="2"><path d="M422.09602,167.35417c0,0 -18.3935,-0.14093 -18.44116,-0.13624c-4.78423,0.47138 -15.01355,-3.07619 -21.07507,-3.16164c-4.47787,-0.06313 -12.62458,1.35022 -12.62458,1.35022l1.29093,-19.75482h52.18805l-0.1258,6.18691l-20.50654,0.52225l-0.13859,3.86053l19.78154,8.05858l-0.34875,3.0742z" fill="#d14040" stroke="#d14040"/><path d="M409.71811,146.76462v-3.89532h7.69439v3.89532z" fill="#d14040" stroke="#d14040"/><path d="M371.24616,145.65168v-6.95593h30.44302v6.95593z" fill="#d14040" stroke="#d14040"/><path d="M375.59515,137.02633v-3.33884h8.69801v3.33884z" fill="#990000" stroke="#990000"/></g><g data-paper-data="{&quot;index&quot;:null}" stroke-width="2"><path d="M322.35405,168.13851l-0.30534,-14.11641l6.34363,-0.50122l0.30533,14.11642z" fill="#990000" stroke="#990000"/><path d="M335.64606,165.63851l-0.30533,-14.11641l6.34363,-0.50122l0.30533,14.11642z" fill="#990000" stroke="#990000"/><path d="M348.93808,163.88851l-0.30534,-14.11641l6.34363,-0.50122l0.30533,14.11642z" fill="#990000" stroke="#990000"/><path d="M360.83093,161.13851l-0.30534,-14.11641l6.34363,-0.50122l0.30533,14.11642z" fill="#990000" stroke="#990000"/><path d="M379.3602,162.94931c0,0 -20.32494,6.32877 -31.76469,8.33067c-12.32656,2.15708 -34.98089,3.09206 -34.98089,3.09206l-0.17989,-11.96702c0,0 21.57883,-2.0472 33.8582,-4.19602c4.03562,-0.70621 9.28777,-2.10464 14.40603,-3.62263c9.46984,-2.80858 18.48134,-6.02643 18.48134,-6.02643l0.17989,14.38937z" fill="#d14040" stroke="#d14040"/></g><g data-paper-data="{&quot;index&quot;:null}" stroke-width="2"><path d="M203.03678,171.19529l-1.07024,-14.07996l7.09122,-0.86791l1.07023,14.07997z" fill="#990000" stroke="#990000"/><path d="M187.82561,174.65066l-1.07024,-14.07996l7.09122,-0.86791l1.07024,14.07997z" fill="#990000" stroke="#990000"/><path d="M172.61441,178.106l-1.07023,-14.07996l7.09122,-0.86791l1.07023,14.07997z" fill="#990000" stroke="#990000"/><path d="M157.06299,181.74584l-1.07024,-14.07996l7.09122,-0.86791l1.07023,14.07997z" fill="#990000" stroke="#990000"/><path d="M141.8604,185.36764l-1.07024,-14.07996l7.09122,-0.86791l1.07023,14.07997z" fill="#990000" stroke="#990000"/><path d="M125.73769,190.87272l-1.07024,-14.07996l7.09122,-0.86791l1.07023,14.07997z" fill="#990000" stroke="#990000"/><path d="M110.16172,194.34691l-1.07024,-14.07996l7.09123,-0.86791l1.07023,14.07997z" fill="#990000" stroke="#990000"/><path d="M95.23312,197.12011l-1.07023,-14.07996l7.09122,-0.86791l1.07023,14.07997z" fill="#990000" stroke="#990000"/><path d="M64.54287,204.37846l-1.07023,-14.07996l7.09122,-0.86791l1.07023,14.07997z" fill="#990000" stroke="#990000"/><path d="M79.7829,201.17196l-1.07024,-14.07996l7.09122,-0.86791l1.07023,14.07997z" fill="#990000" stroke="#990000"/><path d="M191.22648,178.88331c-13.74067,4.28847 -46.06942,14.9692 -75.25928,19.78889c-30.07929,4.96655 -57.89354,13.91043 -57.89354,13.91043l-1.60143,-10.15629c0,0 27.38005,-10.43959 57.16495,-15.24347c28.40813,-4.58182 59.32486,-15.46656 72.76716,-19.69677c13.66028,-4.29881 31.63568,-5.83934 31.63568,-5.83934l2.23265,11.29193c0,0 -15.70674,1.78137 -29.04619,5.94462z" fill="#d14040" stroke="#d14040"/></g><g data-paper-data="{&quot;index&quot;:null}"><path d="M295.93421,146.44671c0,0 -2.57422,1.17317 -5.02504,2.12206c-1.62441,0.62893 -3.47496,1.15934 -3.47496,1.18431c0,1.42763 -1,7.26631 -1,7.26631c0,0 -20.75754,-1.45545 -44.84305,-2.27045c-21.84709,-0.23576 -50.65695,0.04058 -50.65695,0.04058c0,0 11.31629,-1.36131 10.19785,-2.27697c-1.2618,-1.03304 -5.94054,-2.51946 -5.24271,-2.53102c2.43243,-0.0403 11.41359,-0.1867 15.6087,-0.67411c5.13281,-0.59636 5.3374,-1.55034 5.3374,-1.55034c0,0 23.29216,0.10034 36.59458,0.0722c20.01628,-0.55696 42.50419,-1.38257 42.50419,-1.38257z" fill="#d14040" stroke="none" stroke-width="0"/><path d="M288.55653,152.14234c0,0 -9.42339,-0.60876 -8.12936,-1.18952c1.29403,-0.58076 12.81546,-0.9136 12.81546,-0.9136z" fill="#874444" stroke="#874444" stroke-width="0.5"/><path d="M307.26331,146.60707l-10.85448,4.65463l-12.30377,-0.16964l10.85448,-4.65464z" fill="#874444" stroke="none" stroke-width="2"/><path d="M291.93421,150.98336c0,0 0,4.7897 0,5.61954c0,0.23612 -6.5,0.45495 -6.5,0.45495c0,0 0,-0.30445 0,-0.60873c0,-0.91176 0,-5.46575 0,-5.46575z" fill="#914949" stroke="none" stroke-width="0"/><path d="M281.94573,151.29709l1.71544,0.50913c0,0 -41.35602,1.66122 -48.67525,1.90079c-14.79389,0.48423 -43.39659,1.02507 -43.39659,1.02507c0,0 26.09654,-0.86972 40.88272,-1.30003c16.6572,-0.48477 49.47369,-2.13496 49.47369,-2.13496z" fill="#878787" stroke="#874444" stroke-width="0.5"/><path d="M282.25491,151.05348l-0.98146,0.4811c0,0 -31.06689,-0.53188 -45.76689,-0.79568c-13.66685,-0.24526 -39.55974,-0.73555 -39.55974,-0.73555c0,0 26.63389,0.29843 40.56074,0.46788c14.79051,0.17996 45.74734,0.58225 45.74734,0.58225z" fill="#878787" stroke="#874444" stroke-width="0.5"/><path d="M284.99977,150.4968l-2.92348,0.39954c0,0 -22.02737,-1.08907 -32.8923,-1.61361c-10.67014,-0.51514 -31.72347,-1.50592 -31.72347,-1.50592c0,0 24.4557,0.95927 36.06889,1.42696c10.84766,0.43686 31.47037,1.29303 31.47037,1.29303z" fill="#878787" stroke="#874444" stroke-width="0.5"/></g></g></g></svg>