<svg version="1.1" xmlns="http://www.w3.org/2000/svg" xmlns:xlink="http://www.w3.org/1999/xlink" width="366.55461" height="127.87511" viewBox="0,0,366.55461,127.87511"><g transform="translate(-57.61733,-134.06245)"><g data-paper-data="{&quot;isPaintingLayer&quot;:true}" fill-rule="nonzero" stroke-linecap="butt" stroke-linejoin="miter" stroke-miterlimit="10" stroke-dasharray="" stroke-dashoffset="0" style="mix-blend-mode: normal"><g data-paper-data="{&quot;index&quot;:null}" stroke-width="2"><path d="M234.23317,181.26194l2.20995,-0.87616l46.62655,7.23567l-2.20995,0.87616z" fill="#a4a4a4" stroke="#a4a4a4"/><path d="M196.56052,173.87232l1.25591,-0.21837l41.19121,7.823l-1.15751,0.12366z" fill="#a4a4a4" stroke="#a4a4a4"/><g><path d="M232.27742,185.22914c-8.48226,0.05347 -24.71526,1.13823 -24.71526,1.13823c0,0 -4.40438,-1.33869 -8.48631,-1.74378c-4.52449,-0.44901 -17.46986,-0.83208 -17.46986,-0.83208c0,0 -1.38169,-2.22229 -4.11342,-3.18076c-3.13418,-1.09967 -13.65076,-3.05207 -13.65076,-3.05207c0,0 16.94557,-0.31898 22.32928,-0.88539c4.98425,-0.52439 8.86706,-2.39673 8.86706,-2.39673l66.1272,11.76549c0,0 -20.17529,-0.86783 -28.88793,-0.81291z" fill="#161616" stroke="#161616"/><path d="M207.65273,186.58281l23.02991,-6.12498l2.4575,0.5922z" fill="#a2a2a2" stroke="#a4a4a4"/><path d="M180.66823,183.83664l50.03921,-3.67864l1.40101,1.26679z" fill="#a2a2a2" stroke="#a4a4a4"/><path d="M163.17358,177.46159l65.92738,3.00135l-1.46033,1.10552z" fill="#a2a2a2" stroke="#a4a4a4"/></g></g><path d="M218.87786,221.0393l-3.27092,-32.38966l100.54505,-9.03065l3.27091,32.38966z" data-paper-data="{&quot;index&quot;:null}" fill="#161616" stroke="#161616" stroke-width="2"/><path d="M276.92322,247.02443l-14.47884,-7.91285l19.66224,-35.97772l14.47884,7.91286z" data-paper-data="{&quot;index&quot;:null}" fill="#161616" stroke="#161616" stroke-width="2"/><path d="M265.24281,253.09503l-3.34772,-14.10825l3.89193,-0.92351l3.34772,14.10825z" data-paper-data="{&quot;index&quot;:null}" fill="#161616" stroke="#161616" stroke-width="2"/><path d="M274.24281,257.09503l-3.34772,-14.10825l3.89193,-0.92351l3.34772,14.10825z" data-paper-data="{&quot;index&quot;:null}" fill="#161616" stroke="#161616" stroke-width="2"/><path d="M233.79663,231.74884l20.65172,-25.09496l14.28482,11.75559l-20.65171,25.09495z" data-paper-data="{&quot;index&quot;:null}" fill="#161616" stroke="#161616" stroke-width="2"/><path d="M203.54296,248.55876l-1.65414,-13.92641l39.5981,-3.5328l1.65414,13.9264z" data-paper-data="{&quot;index&quot;:null}" fill="#161616" stroke="#161616" stroke-width="2"/><path d="M189.52054,258.61421l14.57571,-21.51111l2.91308,1.94097l-14.57572,21.51111z" data-paper-data="{&quot;index&quot;:null}" fill="#161616" stroke="#161616" stroke-width="2"/><g data-paper-data="{&quot;index&quot;:null}" stroke-width="2"><path d="M421.81323,201.97916c0,0 -18.3935,-0.14093 -18.44116,-0.13624c-4.78423,0.47138 -15.01355,-3.07619 -21.07507,-3.16164c-4.47787,-0.06313 -12.62458,1.35022 -12.62458,1.35022l1.29093,-19.75482h52.18805l-0.1258,6.18691l-20.50654,0.52225l-0.13859,3.86053l19.78154,8.05858l-0.34875,3.0742z" fill="#161616" stroke="#161616"/><path d="M409.43532,181.38962v-3.89532h7.69439v3.89532z" fill="#161616" stroke="#161616"/><path d="M370.96337,180.27667v-6.95593h30.44302v6.95593z" fill="#161616" stroke="#161616"/><path d="M375.31236,171.65132v-3.33884h8.69801v3.33884z" fill="#4c4c4c" stroke="#4c4c4c"/></g><g data-paper-data="{&quot;index&quot;:null}" stroke-width="2"><path d="M322.07126,202.76351l-0.30534,-14.11641l6.34363,-0.50122l0.30533,14.11642z" fill="#4c4c4c" stroke="#4c4c4c"/><path d="M335.36327,200.26351l-0.30533,-14.11641l6.34363,-0.50122l0.30533,14.11642z" fill="#4c4c4c" stroke="#4c4c4c"/><path d="M348.65529,198.51351l-0.30534,-14.11641l6.34363,-0.50122l0.30533,14.11642z" fill="#4c4c4c" stroke="#4c4c4c"/><path d="M360.54814,195.76351l-0.30534,-14.11641l6.34363,-0.50122l0.30533,14.11642z" fill="#4c4c4c" stroke="#4c4c4c"/><path d="M379.07741,197.5743c0,0 -20.32494,6.32877 -31.76469,8.33067c-12.32656,2.15708 -34.98089,3.09206 -34.98089,3.09206l-0.17989,-11.96702c0,0 21.57883,-2.0472 33.8582,-4.19602c4.03562,-0.70621 9.28777,-2.10464 14.40603,-3.62263c9.46984,-2.80858 18.48134,-6.02643 18.48134,-6.02643l0.17989,14.38937z" fill="#161616" stroke="#161616"/></g><g data-paper-data="{&quot;index&quot;:null}" stroke-width="2"><path d="M203.51598,203.12349l-2.09176,-13.96478l7.00928,-1.38152l2.09176,13.9648z" fill="#4c4c4c" stroke="#4c4c4c"/><path d="M188.59649,207.67638l-2.09176,-13.96478l7.00928,-1.38152l2.09177,13.96479z" fill="#4c4c4c" stroke="#4c4c4c"/><path d="M173.677,212.22925l-2.09175,-13.96479l7.00928,-1.38152l2.09176,13.9648z" fill="#4c4c4c" stroke="#4c4c4c"/><path d="M158.4316,216.99084l-2.09176,-13.96478l7.00928,-1.38152l2.09176,13.9648z" fill="#4c4c4c" stroke="#4c4c4c"/><path d="M143.5328,221.70908l-2.09176,-13.96478l7.00928,-1.38152l2.09176,13.9648z" fill="#4c4c4c" stroke="#4c4c4c"/><path d="M128.10128,224.98226l-2.09176,-13.96478l7.00928,-1.38152l2.09176,13.9648z" fill="#4c4c4c" stroke="#4c4c4c"/><path d="M112.32316,228.29877l-2.09176,-13.96478l7.00929,-1.38152l2.09176,13.9648z" fill="#4c4c4c" stroke="#4c4c4c"/><path d="M96.8503,231.2412l-2.09175,-13.96479l7.00928,-1.38152l2.09176,13.9648z" fill="#4c4c4c" stroke="#4c4c4c"/><path d="M67.67892,237.24013l-2.09175,-13.96479l7.00928,-1.38152l2.09176,13.9648z" fill="#4c4c4c" stroke="#4c4c4c"/><path d="M83.18282,234.54576l-2.09176,-13.96478l7.00928,-1.38152l2.09176,13.9648z" fill="#4c4c4c" stroke="#4c4c4c"/><path d="M220.83302,203.60832c0,0 -15.53552,2.91937 -28.53673,8.04207c-13.39225,5.27678 -45.18921,12.94776 -73.95107,19.87833c-29.63825,7.14176 -58.05139,10.18868 -58.05139,10.18868l-1.55059,-11.79073c0,0 26.75503,-2.68786 56.1115,-9.64596c27.99951,-6.63647 58.7041,-14.44953 71.80302,-19.6465c13.31134,-5.28125 31.12702,-8.12547 31.12702,-8.12547l3.04825,11.09958z" fill="#161616" stroke="#161616"/></g><g data-paper-data="{&quot;index&quot;:null}"><path d="M295.65143,184.13915c0,0 -22.48791,-3.89626 -42.50419,-6.52469c-13.30242,-0.1328 -36.59458,0.34073 -36.59458,0.34073c0,0 -0.20459,-4.50208 -5.3374,-7.31644c-4.19511,-2.30022 -13.17627,-2.99115 -15.6087,-3.18132c-0.69783,-0.05456 3.98091,-7.06938 5.24271,-11.94455c1.11844,-4.32124 -10.19785,-10.74562 -10.19785,-10.74562c0,0 28.80986,1.30408 50.65695,0.19149c24.08551,-3.8462 44.84305,-10.71485 44.84305,-10.71485c0,0 1,27.55427 1,34.29165c0,0.11784 1.85055,2.62096 3.47496,5.58905c2.45082,4.47806 5.02504,10.01455 5.02504,10.01455z" fill="#161616" stroke="none" stroke-width="0"/><path d="M292.95984,167.18515c0,0 -11.52143,-1.57074 -12.81546,-4.3115c-1.29403,-2.74076 8.12936,-5.61366 8.12936,-5.61366z" fill="#878787" stroke="#878787" stroke-width="0.5"/><path d="M294.67675,184.18283l-10.85448,-21.96645l12.30377,-0.80057l10.85448,21.96645z" fill="#929292" stroke="none" stroke-width="2"/><path d="M285.15142,162.72955c0,0 0,-21.49151 0,-25.79434c0,-1.43596 0,-2.87276 0,-2.87276c0,0 6.5,1.03272 6.5,2.14701c0,3.91624 0,26.52009 0,26.52009z" fill="#929292" stroke="none" stroke-width="0"/><path d="M281.66295,161.24895c0,0 -32.81649,-7.78772 -49.47369,-10.07546c-14.78618,-2.03076 -40.88272,-6.1352 -40.88272,-6.1352c0,0 28.6027,2.55238 43.39659,4.83759c7.31923,1.1306 48.67525,8.97035 48.67525,8.97035l-1.71544,2.40271z" fill="#878787" stroke="#878787" stroke-width="0.5"/><path d="M281.97211,162.39864c0,0 -30.95683,1.89852 -45.74734,2.74779c-13.92685,0.79968 -40.56074,2.20805 -40.56074,2.20805c0,0 25.89289,-2.31382 39.55974,-3.47126c14.7,-1.24494 45.76689,-3.75502 45.76689,-3.75502l0.98146,2.27044z" fill="#878787" stroke="#878787" stroke-width="0.5"/><path d="M284.71699,165.02571c0,0 -20.62271,4.04046 -31.47037,6.10214c-11.61319,2.20717 -36.06889,6.73421 -36.06889,6.73421c0,0 21.05333,-4.67577 31.72347,-7.10683c10.86493,-2.47544 32.8923,-7.61505 32.8923,-7.61505l2.92348,1.88552z" fill="#878787" stroke="#878787" stroke-width="0.5"/></g></g></g></svg>