<svg version="1.1" xmlns="http://www.w3.org/2000/svg" xmlns:xlink="http://www.w3.org/1999/xlink" width="370.32117" height="215.8751" viewBox="0,0,370.32117,215.8751"><g transform="translate(-54.85341,-64.22898)"><g data-paper-data="{&quot;isPaintingLayer&quot;:true}" fill-rule="nonzero" stroke-linecap="butt" stroke-linejoin="miter" stroke-miterlimit="10" stroke-dasharray="" stroke-dashoffset="0" style="mix-blend-mode: normal"><g data-paper-data="{&quot;index&quot;:null}" stroke-width="2"><path d="M235.23581,177.49283l2.20995,-3.53231l46.62655,29.1713l-2.20995,3.53231z" fill="#a4a4a4" stroke="#a4a4a4"/><path d="M197.56316,147.70085l1.25591,-0.88037l41.19121,31.53919l-1.15751,0.49855z" fill="#a4a4a4" stroke="#a4a4a4"/><g><path d="M262.16799,196.76435c0,0 -20.17529,-3.49878 -28.88793,-3.27734c-8.48226,0.21557 -24.71526,4.58887 -24.71526,4.58887c0,0 -4.40438,-5.39706 -8.48631,-7.0302c-4.52449,-1.81021 -17.46986,-3.35461 -17.46986,-3.35461c0,0 -1.38169,-8.95939 -4.11342,-12.82355c-3.13418,-4.43345 -13.65076,-12.30473 -13.65076,-12.30473c0,0 16.94557,-1.28599 22.32928,-3.56953c4.98425,-2.11411 8.86706,-9.66264 8.86706,-9.66264l66.1272,47.43372z" fill="#161616" stroke="#161616"/><path d="M208.65537,198.94445l23.02991,-24.69346l2.4575,2.38751z" fill="#a2a2a2" stroke="#a4a4a4"/><path d="M181.67087,187.87296l50.03921,-14.83079l1.40101,5.10721z" fill="#a2a2a2" stroke="#a4a4a4"/><path d="M164.17622,162.17139l65.92738,12.10022l-1.46033,4.45701z" fill="#a2a2a2" stroke="#a4a4a4"/></g></g><path d="M219.8805,239.20582l-3.27092,-32.38966l100.54505,-9.03065l3.27091,32.38966z" data-paper-data="{&quot;index&quot;:null}" fill="#161616" stroke="#161616" stroke-width="2"/><path d="M277.92586,265.19095l-14.47884,-7.91285l19.66224,-35.97772l14.47884,7.91286z" data-paper-data="{&quot;index&quot;:null}" fill="#161616" stroke="#161616" stroke-width="2"/><path d="M266.24545,271.26155l-3.34772,-14.10825l3.89193,-0.92351l3.34772,14.10825z" data-paper-data="{&quot;index&quot;:null}" fill="#161616" stroke="#161616" stroke-width="2"/><path d="M275.24545,275.26155l-3.34772,-14.10825l3.89193,-0.92351l3.34772,14.10825z" data-paper-data="{&quot;index&quot;:null}" fill="#161616" stroke="#161616" stroke-width="2"/><path d="M234.79927,249.91536l20.65172,-25.09496l14.28482,11.75559l-20.65171,25.09495z" data-paper-data="{&quot;index&quot;:null}" fill="#161616" stroke="#161616" stroke-width="2"/><path d="M204.5456,266.72528l-1.65414,-13.92641l39.5981,-3.5328l1.65414,13.9264z" data-paper-data="{&quot;index&quot;:null}" fill="#161616" stroke="#161616" stroke-width="2"/><path d="M190.52318,276.78073l14.57571,-21.51111l2.91308,1.94097l-14.57572,21.51111z" data-paper-data="{&quot;index&quot;:null}" fill="#161616" stroke="#161616" stroke-width="2"/><g data-paper-data="{&quot;index&quot;:null}" stroke-width="2"><path d="M422.81587,220.14568c0,0 -18.3935,-0.14093 -18.44116,-0.13624c-4.78423,0.47138 -15.01355,-3.07619 -21.07507,-3.16164c-4.47787,-0.06313 -12.62458,1.35022 -12.62458,1.35022l1.29093,-19.75482h52.18805l-0.1258,6.18691l-20.50654,0.52225l-0.13859,3.86053l19.78154,8.05858l-0.34875,3.0742z" fill="#161616" stroke="#161616"/><path d="M410.43796,199.55614v-3.89532h7.69439v3.89532z" fill="#161616" stroke="#161616"/><path d="M371.96601,198.44319v-6.95593h30.44302v6.95593z" fill="#161616" stroke="#161616"/><path d="M376.315,189.81784v-3.33884h8.69801v3.33884z" fill="#4c4c4c" stroke="#4c4c4c"/></g><g data-paper-data="{&quot;index&quot;:null}" stroke-width="2"><path d="M323.0739,220.93003l-0.30534,-14.11641l6.34363,-0.50122l0.30533,14.11642z" fill="#4c4c4c" stroke="#4c4c4c"/><path d="M336.36591,218.43003l-0.30533,-14.11641l6.34363,-0.50122l0.30533,14.11642z" fill="#4c4c4c" stroke="#4c4c4c"/><path d="M349.65793,216.68003l-0.30534,-14.11641l6.34363,-0.50122l0.30533,14.11642z" fill="#4c4c4c" stroke="#4c4c4c"/><path d="M361.55078,213.93003l-0.30534,-14.11641l6.34363,-0.50122l0.30533,14.11642z" fill="#4c4c4c" stroke="#4c4c4c"/><path d="M380.08005,215.74082c0,0 -20.32494,6.32877 -31.76469,8.33067c-12.32656,2.15708 -34.98089,3.09206 -34.98089,3.09206l-0.17989,-11.96702c0,0 21.57883,-2.0472 33.8582,-4.19602c4.03562,-0.70621 9.28777,-2.10464 14.40603,-3.62263c9.46984,-2.80858 18.48134,-6.02643 18.48134,-6.02643l0.17989,14.38937z" fill="#161616" stroke="#161616"/></g><g data-paper-data="{&quot;index&quot;:null}" stroke-width="2"><path d="M202.83956,217.8467l-0.34302,-14.11641l7.12653,-0.50122l0.34301,14.11642z" fill="#4c4c4c" stroke="#4c4c4c"/><path d="M187.47048,220.51337l-0.34302,-14.11641l7.12653,-0.50122l0.34302,14.11642z" fill="#4c4c4c" stroke="#4c4c4c"/><path d="M172.1014,223.18003l-0.34301,-14.11641l7.12653,-0.50122l0.34301,14.11642z" fill="#4c4c4c" stroke="#4c4c4c"/><path d="M156.38302,226.01337l-0.34302,-14.11641l7.12653,-0.50122l0.34301,14.11642z" fill="#4c4c4c" stroke="#4c4c4c"/><path d="M141.01395,228.8467l-0.34302,-14.11641l7.12653,-0.50122l0.34301,14.11642z" fill="#4c4c4c" stroke="#4c4c4c"/><path d="M125.29556,230.18003l-0.34302,-14.11641l7.12653,-0.50122l0.34301,14.11642z" fill="#4c4c4c" stroke="#4c4c4c"/><path d="M109.22788,231.51336l-0.34302,-14.11641l7.12654,-0.50122l0.34301,14.11642z" fill="#4c4c4c" stroke="#4c4c4c"/><path d="M93.50951,232.51336l-0.34301,-14.11641l7.12653,-0.50122l0.34301,14.11642z" fill="#4c4c4c" stroke="#4c4c4c"/><path d="M63.81924,234.8467l-0.34301,-14.11641l7.12653,-0.50122l0.34301,14.11642z" fill="#4c4c4c" stroke="#4c4c4c"/><path d="M79.53763,234.0967l-0.34302,-14.11641l7.12653,-0.50122l0.34301,14.11642z" fill="#4c4c4c" stroke="#4c4c4c"/><path d="M190.64865,224.9157c-13.94346,3.57446 -46.44647,7.24118 -75.84597,10.54978c-30.29532,3.40942 -58.86696,2.90764 -58.86696,2.90764l-0.07576,-11.89201c0,0 26.88179,0.65235 56.87472,-2.60979c28.60655,-3.11135 60.04326,-7.05459 73.68575,-10.58625c13.86372,-3.58893 31.89463,-4.20082 31.89463,-4.20082l1.6476,11.39201c0,0 -15.77769,0.96935 -29.31401,4.43944z" fill="#161616" stroke="#161616"/></g><g data-paper-data="{&quot;index&quot;:null}"><path d="M296.65407,202.22899c0,0 -22.48791,-10.73722 -42.50419,-17.98057c-13.30242,-0.36597 -36.59458,0.93897 -36.59458,0.93897c0,0 -0.20459,-12.4067 -5.3374,-20.16245c-4.19511,-6.33888 -13.17627,-8.24293 -15.6087,-8.76699c-0.69783,-0.15035 3.98091,-19.4816 5.24271,-32.91646c1.11844,-11.90838 -10.19785,-29.6125 -10.19785,-29.6125c0,0 28.80986,3.59373 50.65695,0.52768c24.08551,-10.59922 44.84305,-29.52768 44.84305,-29.52768c0,0 1,75.93331 1,94.5c0,0.32475 1.85055,7.22278 3.47496,15.40217c2.45082,12.34054 5.02504,27.59783 5.02504,27.59783z" fill="#161616" stroke="none" stroke-width="0"/><path d="M293.96248,155.5076c0,0 -11.52143,-4.32862 -12.81546,-11.88152c-1.29403,-7.5529 8.12936,-15.46996 8.12936,-15.46996z" fill="#878787" stroke="#878787" stroke-width="0.5"/><path d="M295.67939,202.34937l-10.85448,-60.53454l12.30377,-2.2062l10.85448,60.53454z" fill="#929292" stroke="none" stroke-width="2"/><path d="M286.15406,143.22899c0,0 0,-59.22571 0,-71.08334c0,-3.95718 0,-7.91667 0,-7.91667c0,0 6.5,2.84594 6.5,5.91667c0,10.79226 0,73.08334 0,73.08334z" fill="#929292" stroke="none" stroke-width="0"/><path d="M282.66559,139.14878c0,0 -32.81649,-21.46118 -49.47369,-27.76567c-14.78618,-5.59634 -40.88272,-16.90723 -40.88272,-16.90723c0,0 28.6027,7.0338 43.39659,13.33132c7.31923,3.11567 48.67525,24.72025 48.67525,24.72025l-1.71544,6.62132z" fill="#878787" stroke="#878787" stroke-width="0.5"/><path d="M282.97475,142.31708c0,0 -30.95683,5.23186 -45.74734,7.57227c-13.92685,2.20375 -40.56074,6.08489 -40.56074,6.08489c0,0 25.89289,-6.37636 39.55974,-9.566c14.7,-3.43076 45.76689,-10.34798 45.76689,-10.34798l0.98146,6.25682z" fill="#878787" stroke="#878787" stroke-width="0.5"/><path d="M285.71963,149.55666c0,0 -20.62271,11.1346 -31.47037,16.81612c-11.61319,6.08247 -36.06889,18.55796 -36.06889,18.55796c0,0 21.05333,-12.88537 31.72347,-19.58481c10.86493,-6.82174 32.8923,-20.98535 32.8923,-20.98535l2.92348,5.19608z" fill="#878787" stroke="#878787" stroke-width="0.5"/></g></g></g></svg>