<svg version="1.1" xmlns="http://www.w3.org/2000/svg" xmlns:xlink="http://www.w3.org/1999/xlink" width="370.32117" height="94.62505" viewBox="0,0,370.32117,94.62505"><g transform="translate(-55.85341,-149.68748)"><g data-paper-data="{&quot;isPaintingLayer&quot;:true}" fill-rule="nonzero" stroke-linecap="butt" stroke-linejoin="miter" stroke-miterlimit="10" stroke-dasharray="" stroke-dashoffset="0" style="mix-blend-mode: normal"><g data-paper-data="{&quot;index&quot;:null}" stroke-width="2"><path d="M286.36236,164.02892l2.20995,3.16341l-46.62655,26.12467l-2.20995,-3.16341z" fill="#a4a4a4" stroke="#a4a4a4"/><path d="M243.35278,188.93088l1.15751,0.44645l-41.19121,28.24527l-1.25591,-0.78843z" fill="#a4a4a4" stroke="#a4a4a4"/><g><path d="M266.66799,172.8949l-66.1272,42.47976c0,0 -3.88281,-6.76017 -8.86706,-8.65352c-5.38371,-2.04505 -22.32928,-3.19677 -22.32928,-3.19677c0,0 10.51658,-7.04919 13.65076,-11.01962c2.73173,-3.46056 4.11342,-11.48424 4.11342,-11.48424c0,0 12.94537,-1.38308 17.46986,-3.00428c4.08193,-1.46261 8.48631,-6.29602 8.48631,-6.29602c0,0 16.233,3.91659 24.71526,4.10961c8.71264,0.19828 28.88793,-2.93507 28.88793,-2.93507z" fill="#161616" stroke="#161616"/><path d="M238.64278,190.91873l-2.4575,2.13817l-23.02991,-22.11447z" fill="#a2a2a2" stroke="#a4a4a4"/><path d="M237.6111,189.56565l-1.40101,4.57376l-50.03921,-13.28187z" fill="#a2a2a2" stroke="#a4a4a4"/><path d="M233.14327,189.04689l1.46033,3.99155l-65.92738,10.83651z" fill="#a2a2a2" stroke="#a4a4a4"/></g></g><path d="M220.8805,203.4143l-3.27092,-32.38966l100.54505,-9.03065l3.27091,32.38966z" data-paper-data="{&quot;index&quot;:null}" fill="#161616" stroke="#161616" stroke-width="2"/><path d="M278.92586,229.39943l-14.47884,-7.91285l19.66224,-35.97772l14.47884,7.91286z" data-paper-data="{&quot;index&quot;:null}" fill="#161616" stroke="#161616" stroke-width="2"/><path d="M267.24545,235.46999l-3.34772,-14.10825l3.89193,-0.92351l3.34772,14.10825z" data-paper-data="{&quot;index&quot;:null}" fill="#161616" stroke="#161616" stroke-width="2"/><path d="M276.24545,239.46999l-3.34772,-14.10825l3.89193,-0.92351l3.34772,14.10825z" data-paper-data="{&quot;index&quot;:null}" fill="#161616" stroke="#161616" stroke-width="2"/><path d="M235.79927,214.1238l20.65172,-25.09496l14.28482,11.75559l-20.65171,25.09495z" data-paper-data="{&quot;index&quot;:null}" fill="#161616" stroke="#161616" stroke-width="2"/><path d="M205.5456,230.93376l-1.65414,-13.92641l39.5981,-3.5328l1.65414,13.9264z" data-paper-data="{&quot;index&quot;:null}" fill="#161616" stroke="#161616" stroke-width="2"/><path d="M191.52318,240.98918l14.57571,-21.51111l2.91308,1.94097l-14.57572,21.51111z" data-paper-data="{&quot;index&quot;:null}" fill="#161616" stroke="#161616" stroke-width="2"/><g data-paper-data="{&quot;index&quot;:null}" stroke-width="2"><path d="M423.81587,180.35416c0,0 -18.3935,3.85907 -18.44116,3.86376c-4.78423,0.47138 -15.01355,-3.07619 -21.07507,-3.16164c-4.47787,-0.06313 -12.62458,1.35022 -12.62458,1.35022l1.29093,-19.75482h52.18805l-0.1258,6.18691l-20.50654,0.52225l-0.13859,3.86053l19.78154,3.05858z" fill="#161616" stroke="#161616"/><path d="M411.43796,163.76462v-3.89532h7.69439v3.89532z" fill="#161616" stroke="#161616"/><path d="M372.96601,162.65167v-6.95593h30.44302v6.95593z" fill="#161616" stroke="#161616"/><path d="M377.315,154.02632v-3.33884h8.69801v3.33884z" fill="#4c4c4c" stroke="#4c4c4c"/></g><g data-paper-data="{&quot;index&quot;:null}" stroke-width="2"><path d="M324.0739,185.13851l-0.30534,-14.11641l6.34363,-0.50122l0.30533,14.11642z" fill="#4c4c4c" stroke="#4c4c4c"/><path d="M337.36591,182.63851l-0.30533,-14.11641l6.34363,-0.50122l0.30533,14.11642z" fill="#4c4c4c" stroke="#4c4c4c"/><path d="M350.65793,180.88851l-0.30534,-14.11641l6.34363,-0.50122l0.30533,14.11642z" fill="#4c4c4c" stroke="#4c4c4c"/><path d="M362.55078,178.13851l-0.30534,-14.11641l6.34363,-0.50122l0.30533,14.11642z" fill="#4c4c4c" stroke="#4c4c4c"/><path d="M381.08005,179.9493c0,0 -20.32494,6.32877 -31.76469,8.33067c-12.32656,2.15708 -34.98089,3.09206 -34.98089,3.09206l-0.17989,-11.96702c0,0 21.57883,-2.0472 33.8582,-4.19602c4.03562,-0.70621 9.28777,-2.10464 14.40603,-3.62263c9.46984,-2.80858 18.48134,-6.02643 18.48134,-6.02643l0.17989,14.38937z" fill="#161616" stroke="#161616"/></g><g data-paper-data="{&quot;index&quot;:null}" stroke-width="2"><path d="M203.83956,182.05518l-0.34302,-14.11641l7.12653,-0.50122l0.34301,14.11642z" fill="#4c4c4c" stroke="#4c4c4c"/><path d="M188.47048,184.72185l-0.34302,-14.11641l7.12653,-0.50122l0.34302,14.11642z" fill="#4c4c4c" stroke="#4c4c4c"/><path d="M173.1014,187.38851l-0.34301,-14.11641l7.12653,-0.50122l0.34301,14.11642z" fill="#4c4c4c" stroke="#4c4c4c"/><path d="M157.38302,190.22185l-0.34302,-14.11641l7.12653,-0.50122l0.34301,14.11642z" fill="#4c4c4c" stroke="#4c4c4c"/><path d="M142.01395,193.05518l-0.34302,-14.11641l7.12653,-0.50122l0.34301,14.11642z" fill="#4c4c4c" stroke="#4c4c4c"/><path d="M126.29556,194.38851l-0.34302,-14.11641l7.12653,-0.50122l0.34301,14.11642z" fill="#4c4c4c" stroke="#4c4c4c"/><path d="M110.22788,195.72184l-0.34302,-14.11641l7.12654,-0.50122l0.34301,14.11642z" fill="#4c4c4c" stroke="#4c4c4c"/><path d="M94.50951,196.72184l-0.34301,-14.11641l7.12653,-0.50122l0.34301,14.11642z" fill="#4c4c4c" stroke="#4c4c4c"/><path d="M64.81924,199.05518l-0.34301,-14.11641l7.12653,-0.50122l0.34301,14.11642z" fill="#4c4c4c" stroke="#4c4c4c"/><path d="M80.53763,198.30518l-0.34302,-14.11641l7.12653,-0.50122l0.34301,14.11642z" fill="#4c4c4c" stroke="#4c4c4c"/><path d="M191.64865,189.12418c-13.94346,3.57446 -46.44647,7.24118 -75.84597,10.54978c-30.29532,3.40942 -58.86696,2.90764 -58.86696,2.90764l-0.07576,-11.89201c0,0 26.88179,0.65235 56.87472,-2.60979c28.60655,-3.11135 60.04326,-7.05459 73.68575,-10.58625c13.86372,-3.58893 31.89463,-4.20082 31.89463,-4.20082l1.6476,11.39201c0,0 -15.77769,0.96935 -29.31401,4.43944z" fill="#161616" stroke="#161616"/></g><g data-paper-data="{&quot;index&quot;:null}"><path d="M297.65406,163.48207c0,0 -2.57422,5.64695 -5.02504,10.21436c-1.62441,3.0273 -3.47496,5.58039 -3.47496,5.70057c0,6.87176 -1,34.97576 -1,34.97576c0,0 -20.75754,-7.00569 -44.84305,-10.92862c-21.84709,-1.1348 -50.65695,0.19533 -50.65695,0.19533c0,0 11.31629,-6.55256 10.19785,-10.96001c-1.2618,-4.97246 -5.94054,-12.12722 -5.24271,-12.18286c2.43243,-0.19399 11.41359,-0.89866 15.6087,-3.24477c5.13281,-2.87053 5.3374,-7.46243 5.3374,-7.46243c0,0 23.29216,0.48297 36.59458,0.34752c20.01628,-2.68088 42.50419,-6.65488 42.50419,-6.65488z" fill="#161616" stroke="none" stroke-width="0"/><path d="M290.27638,190.89748c0,0 -9.42339,-2.93022 -8.12936,-5.72566c1.29403,-2.79545 12.81546,-4.39754 12.81546,-4.39754z" fill="#878787" stroke="#878787" stroke-width="0.5"/><path d="M308.98316,164.25402l-10.85448,22.40467l-12.30377,-0.81655l10.85448,-22.40471z" fill="#929292" stroke="none" stroke-width="2"/><path d="M293.65406,185.31878c0,0 0,23.05481 0,27.04918c0,1.13655 -6.5,2.18987 -6.5,2.18987c0,0 0,-1.46545 0,-2.93007c0,-4.38869 0,-26.30893 0,-26.30893z" fill="#929292" stroke="none" stroke-width="0"/><path d="M283.66558,186.82893l1.71544,2.45066c0,0 -41.35602,7.99614 -48.67525,9.14929c-14.79389,2.33081 -43.39659,4.93409 -43.39659,4.93409c0,0 26.09654,-4.18632 40.88272,-6.25759c16.6572,-2.33339 49.47369,-10.27645 49.47369,-10.27645z" fill="#878787" stroke="#878787" stroke-width="0.5"/><path d="M283.97476,185.6563l-0.98146,2.31573c0,0 -31.06689,-2.56016 -45.76689,-3.82994c-13.66685,-1.18053 -39.55974,-3.5405 -39.55974,-3.5405c0,0 26.63389,1.43648 40.56074,2.25211c14.79051,0.86621 45.74734,2.8026 45.74734,2.8026z" fill="#878787" stroke="#878787" stroke-width="0.5"/><path d="M286.71962,182.9768l-2.92348,1.92315c0,0 -22.02737,-5.24215 -32.8923,-7.76698c-10.67014,-2.47958 -31.72347,-7.24862 -31.72347,-7.24862c0,0 24.4557,4.61737 36.06889,6.86856c10.84766,2.10279 31.47037,6.22389 31.47037,6.22389z" fill="#878787" stroke="#878787" stroke-width="0.5"/></g></g></g></svg>