<svg version="1.1" xmlns="http://www.w3.org/2000/svg" xmlns:xlink="http://www.w3.org/1999/xlink" width="370.32117" height="168.87509" viewBox="0,0,370.32117,168.87509"><g transform="translate(-54.85341,-102.56246)"><g data-paper-data="{&quot;isPaintingLayer&quot;:true}" fill-rule="nonzero" stroke-linecap="butt" stroke-linejoin="miter" stroke-miterlimit="10" stroke-dasharray="" stroke-dashoffset="0" style="mix-blend-mode: normal"><g data-paper-data="{&quot;index&quot;:null}" stroke-width="2"><path d="M235.23581,182.34723l2.20995,-1.89508l46.62655,15.65037l-2.20995,1.89508z" fill="#a4a4a4" stroke="#a4a4a4"/><path d="M197.56316,166.36387l1.25591,-0.47232l41.19121,16.92074l-1.15751,0.26747z" fill="#a4a4a4" stroke="#a4a4a4"/><g><path d="M262.16799,192.68639c0,0 -20.17529,-1.8771 -28.88793,-1.75829c-8.48226,0.11565 -24.71526,2.46192 -24.71526,2.46192c0,0 -4.40438,-2.89552 -8.48631,-3.7717c-4.52449,-0.97118 -17.46986,-1.79974 -17.46986,-1.79974c0,0 -1.38169,-4.8067 -4.11342,-6.87982c-3.13418,-2.37855 -13.65076,-6.60148 -13.65076,-6.60148c0,0 16.94557,-0.68993 22.32928,-1.91505c4.98425,-1.13422 8.86706,-5.184 8.86706,-5.184l66.1272,25.44814z" fill="#161616" stroke="#161616"/><path d="M208.65537,193.856l23.02991,-13.24801l2.4575,1.2809z" fill="#a2a2a2" stroke="#a4a4a4"/><path d="M181.67087,187.91616l50.03921,-7.9567l1.40101,2.74001z" fill="#a2a2a2" stroke="#a4a4a4"/><path d="M164.17622,174.12729l65.92738,6.49176l-1.46033,2.39118z" fill="#a2a2a2" stroke="#a4a4a4"/></g></g><path d="M219.8805,230.5393l-3.27092,-32.38966l100.54505,-9.03065l3.27091,32.38966z" data-paper-data="{&quot;index&quot;:null}" fill="#161616" stroke="#161616" stroke-width="2"/><path d="M277.92586,256.52443l-14.47884,-7.91285l19.66224,-35.97772l14.47884,7.91286z" data-paper-data="{&quot;index&quot;:null}" fill="#161616" stroke="#161616" stroke-width="2"/><path d="M266.24545,262.59501l-3.34772,-14.10825l3.89193,-0.92351l3.34772,14.10825z" data-paper-data="{&quot;index&quot;:null}" fill="#161616" stroke="#161616" stroke-width="2"/><path d="M275.24545,266.59501l-3.34772,-14.10825l3.89193,-0.92351l3.34772,14.10825z" data-paper-data="{&quot;index&quot;:null}" fill="#161616" stroke="#161616" stroke-width="2"/><path d="M234.79927,241.24882l20.65172,-25.09496l14.28482,11.75559l-20.65171,25.09495z" data-paper-data="{&quot;index&quot;:null}" fill="#161616" stroke="#161616" stroke-width="2"/><path d="M204.5456,258.05876l-1.65414,-13.92641l39.5981,-3.5328l1.65414,13.9264z" data-paper-data="{&quot;index&quot;:null}" fill="#161616" stroke="#161616" stroke-width="2"/><path d="M190.52318,268.1142l14.57571,-21.51111l2.91308,1.94097l-14.57572,21.51111z" data-paper-data="{&quot;index&quot;:null}" fill="#161616" stroke="#161616" stroke-width="2"/><g data-paper-data="{&quot;index&quot;:null}" stroke-width="2"><path d="M422.81587,211.47916c0,0 -18.3935,-0.14093 -18.44116,-0.13624c-4.78423,0.47138 -15.01355,-3.07619 -21.07507,-3.16164c-4.47787,-0.06313 -12.62458,1.35022 -12.62458,1.35022l1.29093,-19.75482h52.18805l-0.1258,6.18691l-20.50654,0.52225l-0.13859,3.86053l19.78154,8.05858l-0.34875,3.0742z" fill="#161616" stroke="#161616"/><path d="M410.43796,190.88962v-3.89532h7.69439v3.89532z" fill="#161616" stroke="#161616"/><path d="M371.96601,189.77667v-6.95593h30.44302v6.95593z" fill="#161616" stroke="#161616"/><path d="M376.315,181.15132v-3.33884h8.69801v3.33884z" fill="#4c4c4c" stroke="#4c4c4c"/></g><g data-paper-data="{&quot;index&quot;:null}" stroke-width="2"><path d="M323.0739,212.26351l-0.30534,-14.11641l6.34363,-0.50122l0.30533,14.11642z" fill="#4c4c4c" stroke="#4c4c4c"/><path d="M336.36591,209.76351l-0.30533,-14.11641l6.34363,-0.50122l0.30533,14.11642z" fill="#4c4c4c" stroke="#4c4c4c"/><path d="M349.65793,208.01351l-0.30534,-14.11641l6.34363,-0.50122l0.30533,14.11642z" fill="#4c4c4c" stroke="#4c4c4c"/><path d="M361.55078,205.26351l-0.30534,-14.11641l6.34363,-0.50122l0.30533,14.11642z" fill="#4c4c4c" stroke="#4c4c4c"/><path d="M380.08005,207.0743c0,0 -20.32494,6.32877 -31.76469,8.33067c-12.32656,2.15708 -34.98089,3.09206 -34.98089,3.09206l-0.17989,-11.96702c0,0 21.57883,-2.0472 33.8582,-4.19602c4.03562,-0.70621 9.28777,-2.10464 14.40603,-3.62263c9.46984,-2.80858 18.48134,-6.02643 18.48134,-6.02643l0.17989,14.38937z" fill="#161616" stroke="#161616"/></g><g data-paper-data="{&quot;index&quot;:null}"><path d="M296.65407,194.44062c0,0 -22.48791,-7.14866 -42.50419,-11.97117c-13.30242,-0.24366 -36.59458,0.62515 -36.59458,0.62515c0,0 -0.20459,-8.26019 -5.3374,-13.42384c-4.19511,-4.22032 -13.17627,-5.48801 -15.6087,-5.83692c-0.69783,-0.1001 3.98091,-12.97054 5.24271,-21.91525c1.11844,-7.92841 -10.19785,-19.71552 -10.19785,-19.71552c0,0 28.80986,2.39265 50.65695,0.35132c24.08551,-7.05678 44.84305,-19.65904 44.84305,-19.65904c0,0 1,50.55516 1,62.91656c0,0.21622 1.85055,4.8088 3.47496,10.25452c2.45082,8.21613 5.02504,18.37419 5.02504,18.37419z" fill="#161616" stroke="none" stroke-width="0"/><path d="M293.96248,163.33427c0,0 -11.52143,-2.88192 -12.81546,-7.91052c-1.29403,-5.0286 8.12936,-10.29964 8.12936,-10.29964z" fill="#878787" stroke="#878787" stroke-width="0.5"/><path d="M295.67939,194.52076l-10.85448,-40.30291l12.30377,-1.46885l10.85448,40.30291z" fill="#929292" stroke="none" stroke-width="2"/><path d="M286.15406,155.15939c0,0 0,-39.43152 0,-47.32614c0,-2.63463 0,-5.27079 0,-5.27079c0,0 6.5,1.89478 6.5,3.93922c0,7.1853 0,48.6577 0,48.6577z" fill="#929292" stroke="none" stroke-width="0"/><path d="M282.66559,152.44283c0,0 -32.81649,-14.28851 -49.47369,-18.48593c-14.78618,-3.72595 -40.88272,-11.25656 -40.88272,-11.25656c0,0 28.6027,4.683 43.39659,8.87578c7.31923,2.07436 48.67525,16.45834 48.67525,16.45834l-1.71544,4.40837z" fill="#878787" stroke="#878787" stroke-width="0.5"/><path d="M282.97475,154.55225c0,0 -30.95683,3.48328 -45.74734,5.04149c-13.92685,1.46723 -40.56074,4.05123 -40.56074,4.05123c0,0 25.89289,-4.24528 39.55974,-6.36889c14.7,-2.28414 45.76689,-6.88952 45.76689,-6.88952l0.98146,4.16568z" fill="#878787" stroke="#878787" stroke-width="0.5"/><path d="M285.71963,159.37223c0,0 -20.62271,7.41323 -31.47037,11.1959c-11.61319,4.04961 -36.06889,12.35558 -36.06889,12.35558c0,0 21.05333,-8.57888 31.72347,-13.03925c10.86493,-4.5418 32.8923,-13.9717 32.8923,-13.9717l2.92348,3.45947z" fill="#878787" stroke="#878787" stroke-width="0.5"/></g><g data-paper-data="{&quot;index&quot;:null}" stroke-width="2"><path d="M202.83956,209.18017l-0.34302,-14.11641l7.12653,-0.50122l0.34301,14.11642z" fill="#4c4c4c" stroke="#4c4c4c"/><path d="M187.47048,211.84684l-0.34302,-14.11641l7.12653,-0.50122l0.34302,14.11642z" fill="#4c4c4c" stroke="#4c4c4c"/><path d="M172.1014,214.5135l-0.34301,-14.11641l7.12653,-0.50122l0.34301,14.11642z" fill="#4c4c4c" stroke="#4c4c4c"/><path d="M156.38302,217.34684l-0.34302,-14.11641l7.12653,-0.50122l0.34301,14.11642z" fill="#4c4c4c" stroke="#4c4c4c"/><path d="M141.01395,220.18017l-0.34302,-14.11641l7.12653,-0.50122l0.34301,14.11642z" fill="#4c4c4c" stroke="#4c4c4c"/><path d="M125.29556,221.5135l-0.34302,-14.11641l7.12653,-0.50122l0.34301,14.11642z" fill="#4c4c4c" stroke="#4c4c4c"/><path d="M109.22788,222.84683l-0.34302,-14.11641l7.12654,-0.50122l0.34301,14.11642z" fill="#4c4c4c" stroke="#4c4c4c"/><path d="M93.50951,223.84683l-0.34301,-14.11641l7.12653,-0.50122l0.34301,14.11642z" fill="#4c4c4c" stroke="#4c4c4c"/><path d="M63.81924,226.18017l-0.34301,-14.11641l7.12653,-0.50122l0.34301,14.11642z" fill="#4c4c4c" stroke="#4c4c4c"/><path d="M79.53763,225.43017l-0.34302,-14.11641l7.12653,-0.50122l0.34301,14.11642z" fill="#4c4c4c" stroke="#4c4c4c"/><path d="M190.64865,216.24917c-13.94346,3.57446 -46.44647,7.24118 -75.84597,10.54978c-30.29532,3.40942 -58.86696,2.90764 -58.86696,2.90764l-0.07576,-11.89201c0,0 26.88179,0.65235 56.87472,-2.60979c28.60655,-3.11135 60.04326,-7.05459 73.68575,-10.58625c13.86372,-3.58893 31.89463,-4.20082 31.89463,-4.20082l1.6476,11.39201c0,0 -15.77769,0.96935 -29.31401,4.43944z" fill="#161616" stroke="#161616"/></g></g></g></svg>