<svg version="1.1" xmlns="http://www.w3.org/2000/svg" xmlns:xlink="http://www.w3.org/1999/xlink" width="370.32117" height="94.62503" viewBox="0,0,370.32117,94.62503"><g transform="translate(-54.85341,-132.68749)"><g data-paper-data="{&quot;isPaintingLayer&quot;:true}" fill-rule="nonzero" stroke-linecap="butt" stroke-linejoin="miter" stroke-miterlimit="10" stroke-dasharray="" stroke-dashoffset="0" style="mix-blend-mode: normal"><g data-paper-data="{&quot;index&quot;:null}" stroke-width="2"><path d="M285.36236,147.02892l2.20995,1.67301l-46.62655,13.81635l-2.20995,-1.67301z" fill="#a4a4a4" stroke="#874444"/><path d="M242.35278,160.19866l1.15751,0.23611l-41.19121,14.93786l-1.25591,-0.41697z" fill="#a4a4a4" stroke="#874444"/><g><path d="M265.66799,151.71784l-66.1272,22.46594c0,0 -3.88281,-3.5752 -8.86706,-4.57652c-5.38371,-1.08155 -22.32928,-1.69065 -22.32928,-1.69065c0,0 10.51658,-3.72805 13.65076,-5.82786c2.73173,-1.83016 4.11342,-6.07358 4.11342,-6.07358c0,0 12.94537,-0.73146 17.46986,-1.58885c4.08193,-0.77352 8.48631,-3.32973 8.48631,-3.32973c0,0 16.233,2.07134 24.71526,2.17342c8.71264,0.10486 28.88793,-1.55225 28.88793,-1.55225z" fill="#d14040" stroke="#d14040"/><path d="M237.64278,161.24996l-2.4575,1.1308l-23.02991,-11.69551z" fill="#a2a2a2" stroke="#874444"/><path d="M236.6111,160.53437l-1.40101,2.41889l-50.03921,-7.02428z" fill="#a2a2a2" stroke="#874444"/><path d="M232.14327,160.25999l1.46033,2.11098l-65.92738,5.73102z" fill="#a2a2a2" stroke="#a4a4a4"/></g></g><path d="M219.8805,186.41433l-3.27092,-32.38966l100.54505,-9.03065l3.27091,32.38966z" data-paper-data="{&quot;index&quot;:null}" fill="#d14040" stroke="#d14040" stroke-width="2"/><path d="M277.92586,212.39945l-14.47884,-7.91285l19.66224,-35.97772l14.47884,7.91286z" data-paper-data="{&quot;index&quot;:null}" fill="#d14040" stroke="#d14040" stroke-width="2"/><path d="M266.24545,218.46998l-3.34772,-14.10825l3.89193,-0.92351l3.34772,14.10825z" data-paper-data="{&quot;index&quot;:null}" fill="#d14040" stroke="#d14040" stroke-width="2"/><path d="M275.24545,222.46998l-3.34772,-14.10825l3.89193,-0.92351l3.34772,14.10825z" data-paper-data="{&quot;index&quot;:null}" fill="#d14040" stroke="#d14040" stroke-width="2"/><path d="M234.79927,197.12379l20.65172,-25.09496l14.28482,11.75559l-20.65171,25.09495z" data-paper-data="{&quot;index&quot;:null}" fill="#d14040" stroke="#d14040" stroke-width="2"/><path d="M204.5456,213.93375l-1.65414,-13.92641l39.5981,-3.5328l1.65414,13.9264z" data-paper-data="{&quot;index&quot;:null}" fill="#d14040" stroke="#d14040" stroke-width="2"/><path d="M190.52318,223.98917l14.57571,-21.51111l2.91308,1.94097l-14.57572,21.51111z" data-paper-data="{&quot;index&quot;:null}" fill="#d14040" stroke="#d14040" stroke-width="2"/><g data-paper-data="{&quot;index&quot;:null}" stroke-width="2"><path d="M422.81587,164.85419c0,0 -18.3935,2.35907 -18.44116,2.36376c-4.78423,0.47138 -15.01355,-3.07619 -21.07507,-3.16164c-4.47787,-0.06313 -12.62458,1.35022 -12.62458,1.35022l1.29093,-19.75482h52.18805l-0.1258,6.18691l-20.50654,0.52225l-0.13859,3.86053l19.78154,5.05858z" fill="#d14040" stroke="#d14040"/><path d="M410.43796,146.76462v-3.89532h7.69439v3.89532z" fill="#d14040" stroke="#d14040"/><path d="M371.96601,145.65168v-6.95593h30.44302v6.95593z" fill="#d14040" stroke="#d14040"/><path d="M376.315,137.02633v-3.33884h8.69801v3.33884z" fill="#990000" stroke="#990000"/></g><g data-paper-data="{&quot;index&quot;:null}" stroke-width="2"><path d="M323.0739,168.13854l-0.30534,-14.11641l6.34363,-0.50122l0.30533,14.11642z" fill="#990000" stroke="#990000"/><path d="M336.36591,165.63854l-0.30533,-14.11641l6.34363,-0.50122l0.30533,14.11642z" fill="#990000" stroke="#990000"/><path d="M349.65793,163.88854l-0.30534,-14.11641l6.34363,-0.50122l0.30533,14.11642z" fill="#990000" stroke="#990000"/><path d="M361.55078,161.13854l-0.30534,-14.11641l6.34363,-0.50122l0.30533,14.11642z" fill="#990000" stroke="#990000"/><path d="M380.08005,162.94932c0,0 -20.32494,6.32877 -31.76469,8.33067c-12.32656,2.15708 -34.98089,3.09206 -34.98089,3.09206l-0.17989,-11.96702c0,0 21.57883,-2.0472 33.8582,-4.19602c4.03562,-0.70621 9.28777,-2.10464 14.40603,-3.62263c9.46984,-2.80858 18.48134,-6.02643 18.48134,-6.02643l0.17989,14.38937z" fill="#d14040" stroke="#d14040"/></g><g data-paper-data="{&quot;index&quot;:null}" stroke-width="2"><path d="M202.83956,165.0552l-0.34302,-14.11641l7.12653,-0.50122l0.34301,14.11642z" fill="#990000" stroke="#990000"/><path d="M187.47048,167.72184l-0.34302,-14.11641l7.12653,-0.50122l0.34302,14.11642z" fill="#990000" stroke="#990000"/><path d="M172.1014,170.38854l-0.34301,-14.11641l7.12653,-0.50122l0.34301,14.11642z" fill="#990000" stroke="#990000"/><path d="M156.38302,173.22184l-0.34302,-14.11641l7.12653,-0.50122l0.34301,14.11642z" fill="#990000" stroke="#990000"/><path d="M141.01395,176.0552l-0.34302,-14.11641l7.12653,-0.50122l0.34301,14.11642z" fill="#990000" stroke="#990000"/><path d="M125.29556,177.38854l-0.34302,-14.11641l7.12653,-0.50122l0.34301,14.11642z" fill="#990000" stroke="#990000"/><path d="M109.22788,178.72184l-0.34302,-14.11641l7.12654,-0.50122l0.34301,14.11642z" fill="#990000" stroke="#990000"/><path d="M93.50951,179.72184l-0.34301,-14.11641l7.12653,-0.50122l0.34301,14.11642z" fill="#990000" stroke="#990000"/><path d="M63.81924,182.0552l-0.34301,-14.11641l7.12653,-0.50122l0.34301,14.11642z" fill="#990000" stroke="#990000"/><path d="M79.53763,181.3052l-0.34302,-14.11641l7.12653,-0.50122l0.34301,14.11642z" fill="#990000" stroke="#990000"/><path d="M190.64865,172.12417c-13.94346,3.57446 -46.44647,7.24118 -75.84597,10.54978c-30.29532,3.40942 -58.86696,2.90764 -58.86696,2.90764l-0.07576,-11.89201c0,0 26.88179,0.65235 56.87472,-2.60979c28.60655,-3.11135 60.04326,-7.05459 73.68575,-10.58625c13.86372,-3.58893 31.89463,-4.20082 31.89463,-4.20082l1.6476,11.39201c0,0 -15.77769,0.96935 -29.31401,4.43944z" fill="#d14040" stroke="#d14040"/></g><g data-paper-data="{&quot;index&quot;:null}"><path d="M296.65406,146.46418c0,0 -2.57422,3.38245 -5.02504,6.11826c-1.62441,1.81331 -3.47496,3.34257 -3.47496,3.41456c0,4.11609 -1,20.94999 -1,20.94999c0,0 -20.75754,-4.19631 -44.84305,-6.54609c-21.84709,-0.67973 -50.65695,0.117 -50.65695,0.117c0,0 11.31629,-3.92489 10.19785,-6.56489c-1.2618,-2.97843 -5.94054,-7.26403 -5.24271,-7.29736c2.43243,-0.11619 11.41359,-0.53828 15.6087,-1.94357c5.13281,-1.71941 5.3374,-4.46989 5.3374,-4.46989c0,0 23.29216,0.28929 36.59458,0.20816c20.01628,-1.60581 42.50419,-3.98618 42.50419,-3.98618z" fill="#d14040" stroke="none" stroke-width="0"/><path d="M289.27638,162.88563c0,0 -9.42339,-1.75516 -8.12936,-3.42959c1.29403,-1.67443 12.81546,-2.63406 12.81546,-2.63406z" fill="#874444" stroke="#874444" stroke-width="0.5"/><path d="M307.98316,146.92655l-10.85448,13.42008l-12.30377,-0.4891l10.85448,-13.42011z" fill="#914949" stroke="none" stroke-width="2"/><path d="M292.65406,159.54405c0,0 0,13.80951 0,16.20208c0,0.68078 -6.5,1.3117 -6.5,1.3117c0,0 0,-0.87778 0,-1.75507c0,-2.62876 0,-15.75868 0,-15.75868z" fill="#914949" stroke="none" stroke-width="0"/><path d="M282.66558,160.4486l1.71544,1.46791c0,0 -41.35602,4.78958 -48.67525,5.4803c-14.79389,1.39612 -43.39659,2.95545 -43.39659,2.95545c0,0 26.09654,-2.50755 40.88272,-3.74821c16.6572,-1.39767 49.47369,-6.15545 49.47369,-6.15545z" fill="#874444" stroke="#874444" stroke-width="0.5"/><path d="M282.97476,159.74624l-0.98146,1.38709c0,0 -31.06689,-1.5335 -45.76689,-2.29408c-13.66685,-0.70712 -39.55974,-2.12071 -39.55974,-2.12071c0,0 26.63389,0.86043 40.56074,1.34898c14.79051,0.51885 45.74734,1.67872 45.74734,1.67872z" fill="#874444" stroke="#874444" stroke-width="0.5"/><path d="M285.71962,158.14127l-2.92348,1.15194c0,0 -22.02737,-3.13997 -32.8923,-4.65231c-10.67014,-1.48523 -31.72347,-4.34182 -31.72347,-4.34182c0,0 24.4557,2.76574 36.06889,4.11417c10.84766,1.25954 31.47037,3.72802 31.47037,3.72802z" fill="#874444" stroke="#874444" stroke-width="0.5"/></g></g></g></svg>